<svg width="101" height="50" viewBox="0 0 101 50" fill="none" xmlns="http://www.w3.org/2000/svg">
<g filter="url(#filter0_d_307_1427)">
<mask id="path-1-inside-1_307_1427" fill="white">
<path d="M7.8923 27.3907C8.15842 27.3408 8.45781 27.3076 8.79046 27.3076C8.84036 25.5611 9.83831 22.6671 10.9028 19.6732C9.90484 19.5235 9.05658 19.5235 8.54097 19.8728C8.17505 18.4257 9.55556 18.143 11.4517 18.1763C12.433 15.3986 13.3811 12.6875 13.5807 10.8745C12.0006 10.7747 10.6034 10.9411 9.72189 11.939C9.43913 12.2384 8.67403 8.46282 12.1336 7.83078C14.9445 7.31517 20.9323 9.61047 22.8117 6.96588C23.0945 6.58333 23.3274 10.0429 21.4479 10.9743C20.2503 11.5565 18.6702 11.49 17.0236 11.2904C16.7907 12.8871 15.9258 15.5317 15.0277 18.4091C16.9903 18.5422 18.7201 18.5255 19.086 17.5941C19.6682 21.0703 17.1899 20.9539 14.4289 20.3884C13.6638 22.9498 12.9486 25.5445 12.6825 27.6568C15.0942 27.9396 17.5059 28.0394 18.5704 26.5258C18.8532 26.1433 19.086 29.6029 17.2066 30.5177C13.9133 32.1476 7.8424 28.8211 5.48057 31.4823C5.19782 31.7817 4.43272 28.0061 7.8923 27.3907ZM21.9136 17.1617C21.897 17.0951 25.5894 16.7625 25.5229 18.8915C25.473 20.2553 22.2795 27.241 22.9448 29.4864C24.5748 27.4074 28.9159 17.1617 28.9159 17.1617C28.8993 17.0951 32.5917 16.7625 32.5086 18.8915C32.4587 20.272 29.6644 25.8439 29.9471 29.5862C31.2278 28.239 32.7747 24.5299 33.0574 23.8313C33.0907 23.7648 33.1572 23.7316 33.2238 23.7316C33.3568 23.7316 33.44 23.848 33.4067 23.9644C33.0075 25.1952 31.3443 30.2682 30.4794 30.7838C29.4814 31.3992 26.7703 30.368 26.5208 29.2369C26.0385 27.1412 28.0677 22.1515 28.7496 19.141C27.419 22.6172 24.3419 30.4179 23.2775 30.8836C22.2961 31.2994 19.6349 30.4511 19.4187 29.1205C19.0195 26.7088 22.4292 19.0911 21.9136 17.1617ZM29.3151 38.9171C28.6332 34.7257 34.9868 20.6213 34.3215 17.1284C34.3049 17.0619 38.147 17.1284 37.9142 19.2407C37.6979 21.2533 34.8371 29.187 33.4899 35.0916C35.9016 26.1433 40.5421 17.6773 41.2573 17.2615C41.906 16.8789 43.9019 17.4444 44.7169 18.8748C45.8146 20.8042 43.4861 30.1185 39.6273 30.9002C38.7624 31.0832 36.7166 29.8025 36.3008 29.2868C34.8704 32.9626 33.5398 37.0709 32.9077 40.8631C32.8246 41.2623 29.5978 40.6469 29.3151 38.9171ZM41.6066 18.3093C41.3904 18.2262 38.8289 22.8667 36.4837 28.8045C39.5608 30.5343 42.3883 18.6253 41.6066 18.3093ZM44.3842 28.9875C43.7023 24.7794 50.1391 10.1926 49.7067 7.08231C49.69 7.01578 53.2162 7.19874 52.9833 9.31108C52.7504 11.49 49.374 20.6712 48.243 26.6589C49.8564 22.6671 52.6673 16.9621 54.2806 17.1118C55.2121 17.1949 57.0915 18.0765 57.2579 18.642C57.7236 20.2054 54.4636 27.3408 54.3971 29.7027C55.6944 28.4552 57.3244 24.5465 57.6072 23.8313C57.6404 23.7648 57.707 23.7316 57.7735 23.7316C57.9065 23.7316 57.9897 23.848 57.9564 23.9644C57.5573 25.1952 55.7277 30.8337 54.9958 30.9335C53.5488 31.1331 51.1038 30.0852 50.9042 28.7712C50.6547 26.9915 53.4989 21.22 53.7817 18.4257C52.95 18.2927 47.9436 28.3055 47.9769 30.8836C48.0767 31.3493 44.6836 30.7505 44.3842 28.9875ZM57.4076 28.7546C56.4262 25.977 58.655 19.0245 61.1665 17.4112C62.0314 16.8457 64.3766 16.9953 65.1251 17.4943C65.7738 17.9101 65.358 18.3093 65.358 18.3093C62.6468 17.0452 59.4534 28.8211 60.7008 29.9688C62.1479 31.2994 65.5908 20.405 63.5117 19.9726C63.5117 19.9726 64.4764 18.6087 65.3081 18.7085C68.1855 19.0911 66.0066 28.871 61.9815 30.7671C60.8838 31.2828 58.2725 31.183 57.4076 28.7546ZM66.1231 29.1538C65.6906 26.5092 68.9672 19.0578 68.435 17.1284C68.4184 17.0619 72.3104 16.7625 72.2439 18.8915C72.194 20.089 70.0816 24.4468 69.7157 28.0228C70.9798 24.0975 73.8739 16.9454 75.6702 17.1118C76.6016 17.1949 78.2316 17.96 78.3979 18.5089C78.6141 19.2407 76.3854 22.7336 76.9841 24.8958C72.0276 24.6796 75.2377 19.0744 75.1712 18.4257C74.3396 18.2927 69.882 28.2057 69.8987 30.8004C69.9153 30.9002 69.7989 30.9667 69.7157 30.9501C69.0005 30.8669 66.3393 30.4844 66.1231 29.1538ZM83.3544 16.8623C78.5975 16.2302 81.6246 13.5524 81.4251 11.7893C86.5812 12.621 82.9386 14.4007 83.3544 16.8623ZM76.9675 29.1538C76.5018 26.609 79.9281 19.0578 79.4125 17.1284C79.3959 17.0619 83.2546 16.7625 83.1881 18.8915C83.1382 20.272 80.3772 25.7607 80.6101 29.5031C81.8741 28.0893 83.3711 24.5133 83.6538 23.8313C83.6705 23.7648 83.737 23.7316 83.8201 23.7316C83.9366 23.7316 84.0197 23.848 83.9865 23.9644C83.6039 25.1952 81.791 30.5177 80.9926 30.9002C80.1776 31.2661 77.1837 30.4012 76.9675 29.1538ZM86.9138 30.8836C86.315 31.2994 83.6206 30.5676 83.0052 29.4532C82.2068 28.0228 84.2027 20.7709 86.0323 18.4257C87.4627 16.6128 90.5564 17.0619 91.2882 17.4943C91.4712 17.5941 91.5377 17.6939 91.4379 17.9767C91.3215 18.2927 91.0886 18.2262 90.7227 18.1264C88.8598 17.644 86.0656 27.8564 86.2485 29.9355L92.1864 17.2947C92.3859 16.7459 95.9121 17.6606 95.5794 18.3592C95.2468 19.0578 92.8184 27.3408 92.7519 29.7027C94.0492 28.4552 95.6958 24.5465 95.9786 23.8313C96.0119 23.7648 96.0784 23.7316 96.1449 23.7316C96.2613 23.7316 96.3611 23.848 96.3112 23.9644C95.9287 25.1952 94.0991 30.8337 93.3673 30.9335C91.9036 31.1331 89.4586 30.0852 89.2756 28.7712C89.1093 27.6568 90.0241 24.2139 90.8724 21.3864C89.4087 25.1786 87.2465 30.6507 86.9138 30.8836Z"/>
</mask>
<path d="M7.8923 27.3907C8.15842 27.3408 8.45781 27.3076 8.79046 27.3076C8.84036 25.5611 9.83831 22.6671 10.9028 19.6732C9.90484 19.5235 9.05658 19.5235 8.54097 19.8728C8.17505 18.4257 9.55556 18.143 11.4517 18.1763C12.433 15.3986 13.3811 12.6875 13.5807 10.8745C12.0006 10.7747 10.6034 10.9411 9.72189 11.939C9.43913 12.2384 8.67403 8.46282 12.1336 7.83078C14.9445 7.31517 20.9323 9.61047 22.8117 6.96588C23.0945 6.58333 23.3274 10.0429 21.4479 10.9743C20.2503 11.5565 18.6702 11.49 17.0236 11.2904C16.7907 12.8871 15.9258 15.5317 15.0277 18.4091C16.9903 18.5422 18.7201 18.5255 19.086 17.5941C19.6682 21.0703 17.1899 20.9539 14.4289 20.3884C13.6638 22.9498 12.9486 25.5445 12.6825 27.6568C15.0942 27.9396 17.5059 28.0394 18.5704 26.5258C18.8532 26.1433 19.086 29.6029 17.2066 30.5177C13.9133 32.1476 7.8424 28.8211 5.48057 31.4823C5.19782 31.7817 4.43272 28.0061 7.8923 27.3907ZM21.9136 17.1617C21.897 17.0951 25.5894 16.7625 25.5229 18.8915C25.473 20.2553 22.2795 27.241 22.9448 29.4864C24.5748 27.4074 28.9159 17.1617 28.9159 17.1617C28.8993 17.0951 32.5917 16.7625 32.5086 18.8915C32.4587 20.272 29.6644 25.8439 29.9471 29.5862C31.2278 28.239 32.7747 24.5299 33.0574 23.8313C33.0907 23.7648 33.1572 23.7316 33.2238 23.7316C33.3568 23.7316 33.44 23.848 33.4067 23.9644C33.0075 25.1952 31.3443 30.2682 30.4794 30.7838C29.4814 31.3992 26.7703 30.368 26.5208 29.2369C26.0385 27.1412 28.0677 22.1515 28.7496 19.141C27.419 22.6172 24.3419 30.4179 23.2775 30.8836C22.2961 31.2994 19.6349 30.4511 19.4187 29.1205C19.0195 26.7088 22.4292 19.0911 21.9136 17.1617ZM29.3151 38.9171C28.6332 34.7257 34.9868 20.6213 34.3215 17.1284C34.3049 17.0619 38.147 17.1284 37.9142 19.2407C37.6979 21.2533 34.8371 29.187 33.4899 35.0916C35.9016 26.1433 40.5421 17.6773 41.2573 17.2615C41.906 16.8789 43.9019 17.4444 44.7169 18.8748C45.8146 20.8042 43.4861 30.1185 39.6273 30.9002C38.7624 31.0832 36.7166 29.8025 36.3008 29.2868C34.8704 32.9626 33.5398 37.0709 32.9077 40.8631C32.8246 41.2623 29.5978 40.6469 29.3151 38.9171ZM41.6066 18.3093C41.3904 18.2262 38.8289 22.8667 36.4837 28.8045C39.5608 30.5343 42.3883 18.6253 41.6066 18.3093ZM44.3842 28.9875C43.7023 24.7794 50.1391 10.1926 49.7067 7.08231C49.69 7.01578 53.2162 7.19874 52.9833 9.31108C52.7504 11.49 49.374 20.6712 48.243 26.6589C49.8564 22.6671 52.6673 16.9621 54.2806 17.1118C55.2121 17.1949 57.0915 18.0765 57.2579 18.642C57.7236 20.2054 54.4636 27.3408 54.3971 29.7027C55.6944 28.4552 57.3244 24.5465 57.6072 23.8313C57.6404 23.7648 57.707 23.7316 57.7735 23.7316C57.9065 23.7316 57.9897 23.848 57.9564 23.9644C57.5573 25.1952 55.7277 30.8337 54.9958 30.9335C53.5488 31.1331 51.1038 30.0852 50.9042 28.7712C50.6547 26.9915 53.4989 21.22 53.7817 18.4257C52.95 18.2927 47.9436 28.3055 47.9769 30.8836C48.0767 31.3493 44.6836 30.7505 44.3842 28.9875ZM57.4076 28.7546C56.4262 25.977 58.655 19.0245 61.1665 17.4112C62.0314 16.8457 64.3766 16.9953 65.1251 17.4943C65.7738 17.9101 65.358 18.3093 65.358 18.3093C62.6468 17.0452 59.4534 28.8211 60.7008 29.9688C62.1479 31.2994 65.5908 20.405 63.5117 19.9726C63.5117 19.9726 64.4764 18.6087 65.3081 18.7085C68.1855 19.0911 66.0066 28.871 61.9815 30.7671C60.8838 31.2828 58.2725 31.183 57.4076 28.7546ZM66.1231 29.1538C65.6906 26.5092 68.9672 19.0578 68.435 17.1284C68.4184 17.0619 72.3104 16.7625 72.2439 18.8915C72.194 20.089 70.0816 24.4468 69.7157 28.0228C70.9798 24.0975 73.8739 16.9454 75.6702 17.1118C76.6016 17.1949 78.2316 17.96 78.3979 18.5089C78.6141 19.2407 76.3854 22.7336 76.9841 24.8958C72.0276 24.6796 75.2377 19.0744 75.1712 18.4257C74.3396 18.2927 69.882 28.2057 69.8987 30.8004C69.9153 30.9002 69.7989 30.9667 69.7157 30.9501C69.0005 30.8669 66.3393 30.4844 66.1231 29.1538ZM83.3544 16.8623C78.5975 16.2302 81.6246 13.5524 81.4251 11.7893C86.5812 12.621 82.9386 14.4007 83.3544 16.8623ZM76.9675 29.1538C76.5018 26.609 79.9281 19.0578 79.4125 17.1284C79.3959 17.0619 83.2546 16.7625 83.1881 18.8915C83.1382 20.272 80.3772 25.7607 80.6101 29.5031C81.8741 28.0893 83.3711 24.5133 83.6538 23.8313C83.6705 23.7648 83.737 23.7316 83.8201 23.7316C83.9366 23.7316 84.0197 23.848 83.9865 23.9644C83.6039 25.1952 81.791 30.5177 80.9926 30.9002C80.1776 31.2661 77.1837 30.4012 76.9675 29.1538ZM86.9138 30.8836C86.315 31.2994 83.6206 30.5676 83.0052 29.4532C82.2068 28.0228 84.2027 20.7709 86.0323 18.4257C87.4627 16.6128 90.5564 17.0619 91.2882 17.4943C91.4712 17.5941 91.5377 17.6939 91.4379 17.9767C91.3215 18.2927 91.0886 18.2262 90.7227 18.1264C88.8598 17.644 86.0656 27.8564 86.2485 29.9355L92.1864 17.2947C92.3859 16.7459 95.9121 17.6606 95.5794 18.3592C95.2468 19.0578 92.8184 27.3408 92.7519 29.7027C94.0492 28.4552 95.6958 24.5465 95.9786 23.8313C96.0119 23.7648 96.0784 23.7316 96.1449 23.7316C96.2613 23.7316 96.3611 23.848 96.3112 23.9644C95.9287 25.1952 94.0991 30.8337 93.3673 30.9335C91.9036 31.1331 89.4586 30.0852 89.2756 28.7712C89.1093 27.6568 90.0241 24.2139 90.8724 21.3864C89.4087 25.1786 87.2465 30.6507 86.9138 30.8836Z" fill="#3C4242"/>
<path d="M7.8923 27.3907L8.06744 28.3753L8.07659 28.3736L7.8923 27.3907ZM8.79046 27.3076V28.3076H9.7623L9.79005 27.3361L8.79046 27.3076ZM10.9028 19.6732L11.845 20.0082L12.2517 18.8643L11.0511 18.6843L10.9028 19.6732ZM8.54097 19.8728L7.57149 20.1179L7.92111 21.5005L9.10182 20.7007L8.54097 19.8728ZM11.4517 18.1763L11.4341 19.1761L12.1545 19.1887L12.3946 18.5094L11.4517 18.1763ZM13.5807 10.8745L14.5746 10.984L14.6893 9.94257L13.6437 9.87653L13.5807 10.8745ZM9.72189 11.939L10.4489 12.6257L10.4603 12.6135L10.4714 12.6011L9.72189 11.939ZM12.1336 7.83078L12.3133 8.8145L12.314 8.81437L12.1336 7.83078ZM22.8117 6.96588L22.0076 6.37149L22.002 6.37899L21.9966 6.38659L22.8117 6.96588ZM21.4479 10.9743L21.8851 11.8737L21.8919 11.8703L21.4479 10.9743ZM17.0236 11.2904L17.1439 10.2976L16.1749 10.1802L16.0341 11.1461L17.0236 11.2904ZM15.0277 18.4091L14.0731 18.1112L13.6954 19.3211L14.96 19.4068L15.0277 18.4091ZM19.086 17.5941L20.0723 17.429L19.4758 13.8671L18.1553 17.2285L19.086 17.5941ZM14.4289 20.3884L14.6296 19.4087L13.7327 19.225L13.4707 20.1022L14.4289 20.3884ZM12.6825 27.6568L11.6903 27.5318L11.5643 28.5326L12.566 28.65L12.6825 27.6568ZM18.5704 26.5258L17.7663 25.9314L17.7592 25.9409L17.7525 25.9506L18.5704 26.5258ZM17.2066 30.5177L16.7689 29.6185L16.763 29.6214L17.2066 30.5177ZM5.48057 31.4823L6.20758 32.169L6.21822 32.1577L6.2285 32.1461L5.48057 31.4823ZM8.07659 28.3736C8.28765 28.334 8.52519 28.3076 8.79046 28.3076V26.3076C8.39043 26.3076 8.02919 26.3476 7.70801 26.4079L8.07659 28.3736ZM9.79005 27.3361C9.81105 26.601 10.0397 25.5464 10.4252 24.2415C10.8052 22.9551 11.312 21.5074 11.845 20.0082L9.96059 19.3382C9.42915 20.8329 8.90469 22.3291 8.50713 23.6749C8.11507 25.002 7.81976 26.2677 7.79087 27.279L9.79005 27.3361ZM11.0511 18.6843C10.5195 18.6045 9.97988 18.5567 9.47895 18.5878C8.98534 18.6185 8.44402 18.7306 7.98012 19.0449L9.10182 20.7007C9.15353 20.6657 9.29415 20.6032 9.60306 20.5839C9.90465 20.5652 10.2882 20.5922 10.7545 20.6621L11.0511 18.6843ZM9.51045 19.6276C9.45649 19.4142 9.49929 19.3763 9.48018 19.4171C9.45966 19.4608 9.44415 19.4341 9.5669 19.3775C9.87403 19.2358 10.4819 19.1594 11.4341 19.1761L11.4692 17.1764C10.5253 17.1599 9.49489 17.2082 8.72923 17.5613C8.31557 17.7521 7.90503 18.0653 7.66933 18.568C7.43504 19.0678 7.4425 19.6078 7.57149 20.1179L9.51045 19.6276ZM12.3946 18.5094C13.3581 15.7819 14.3593 12.94 14.5746 10.984L12.5867 10.7651C12.4028 12.435 11.5079 15.0153 10.5088 17.8431L12.3946 18.5094ZM13.6437 9.87653C12.0341 9.77488 10.1906 9.89787 8.97241 11.277L10.4714 12.6011C11.0162 11.9843 11.967 11.7746 13.5176 11.8726L13.6437 9.87653ZM8.99487 11.2524C9.09486 11.1465 9.27149 11.0123 9.52857 10.9692C9.79011 10.9253 10.0099 10.9965 10.1529 11.0766C10.3876 11.2081 10.4787 11.3926 10.481 11.3967C10.5139 11.4573 10.498 11.4524 10.4774 11.3366C10.4413 11.1345 10.4278 10.8001 10.5033 10.4386C10.5775 10.0832 10.7289 9.74096 10.9874 9.465C11.2377 9.19777 11.6388 8.93773 12.3133 8.8145L11.9539 6.84706C10.8986 7.03985 10.0981 7.48877 9.52762 8.09787C8.96535 8.69824 8.67708 9.39974 8.5455 10.0297C8.41516 10.6538 8.42969 11.2466 8.50849 11.688C8.54525 11.8939 8.60851 12.1398 8.72389 12.3521C8.76735 12.432 8.90052 12.6676 9.1758 12.8217C9.33915 12.9132 9.57884 12.9887 9.85964 12.9416C10.136 12.8952 10.3312 12.7502 10.4489 12.6257L8.99487 11.2524ZM12.314 8.81437C12.862 8.71385 13.6355 8.74342 14.6214 8.84477C15.5254 8.9377 16.708 9.10476 17.7365 9.19303C18.8016 9.28446 19.9245 9.31758 20.9318 9.12672C21.9501 8.93378 22.955 8.49051 23.6269 7.54518L21.9966 6.38659C21.7287 6.76355 21.2804 7.02508 20.5595 7.16168C19.8276 7.30035 18.9255 7.28773 17.9075 7.20036C16.8527 7.10983 15.8938 6.96503 14.8259 6.85525C13.8398 6.75389 12.8107 6.6899 11.9532 6.84719L12.314 8.81437ZM23.6159 7.56027C23.5558 7.64156 23.1984 8.06457 22.6018 7.90274C22.1694 7.78542 22.0168 7.43683 22.0161 7.43555C21.9633 7.32942 21.9746 7.28851 21.9886 7.41215C22.0096 7.59844 22.0113 7.93526 21.9519 8.32763C21.8228 9.17993 21.4852 9.83977 21.0038 10.0783L21.8919 11.8703C23.29 11.1775 23.7757 9.64182 23.9294 8.62711C24.0113 8.08598 24.0193 7.57142 23.9759 7.18751C23.9577 7.02606 23.919 6.77036 23.8067 6.54462C23.7763 6.48353 23.5915 6.09893 23.1255 5.97251C22.4954 5.80157 22.103 6.24239 22.0076 6.37149L23.6159 7.56027ZM21.0107 10.075C20.1085 10.5136 18.807 10.4992 17.1439 10.2976L16.9033 12.2831C18.5334 12.4807 20.3922 12.5994 21.8851 11.8737L21.0107 10.075ZM16.0341 11.1461C15.816 12.6411 14.9895 15.1753 14.0731 18.1112L15.9823 18.7071C16.8622 15.8881 17.7654 13.1331 18.0131 11.4347L16.0341 11.1461ZM14.96 19.4068C15.9415 19.4734 16.9591 19.5111 17.7979 19.3906C18.5634 19.2806 19.6174 18.9765 20.0168 17.9598L18.1553 17.2285C18.1888 17.1432 18.1949 17.313 17.5134 17.411C16.9051 17.4984 16.0765 17.4779 15.0953 17.4114L14.96 19.4068ZM18.0998 17.7593C18.2295 18.534 18.1619 18.9675 18.0679 19.1953C17.9922 19.3785 17.8776 19.4889 17.6598 19.5707C17.4025 19.6672 17.0126 19.7135 16.4622 19.6809C15.9222 19.649 15.3046 19.547 14.6296 19.4087L14.2283 21.3681C14.9337 21.5126 15.6613 21.6371 16.3443 21.6775C17.0169 21.7172 17.7279 21.6813 18.3625 21.4431C19.0366 21.1902 19.605 20.7133 19.9166 19.9583C20.2098 19.2479 20.2336 18.3923 20.0723 17.429L18.0998 17.7593ZM13.4707 20.1022C12.7071 22.6587 11.9681 25.327 11.6903 27.5318L13.6746 27.7818C13.9291 25.762 14.6205 23.241 15.3871 20.6746L13.4707 20.1022ZM12.566 28.65C13.7763 28.7919 15.0873 28.9024 16.255 28.7573C17.4256 28.6119 18.6247 28.1869 19.3884 27.1011L17.7525 25.9506C17.4516 26.3783 16.9126 26.6602 16.0084 26.7726C15.1011 26.8853 14.0004 26.8045 12.7989 26.6636L12.566 28.65ZM19.3746 27.1202C19.3145 27.2016 18.9571 27.6244 18.3607 27.4627C17.9283 27.3455 17.7756 26.997 17.7749 26.9957C17.722 26.8895 17.7333 26.8485 17.7473 26.9719C17.7683 27.1579 17.77 27.4941 17.7107 27.8852C17.5815 28.7362 17.2445 29.387 16.7689 29.6185L17.6442 31.4168C19.0481 30.7335 19.5344 29.1972 19.688 28.1853C19.77 27.645 19.778 27.1308 19.7346 26.7471C19.7163 26.5857 19.6777 26.3301 19.5653 26.1043C19.5349 26.0432 19.35 25.6587 18.884 25.5324C18.254 25.3616 17.8617 25.8023 17.7663 25.9314L19.3746 27.1202ZM16.763 29.6214C16.1609 29.9194 15.3622 30.0212 14.3555 29.9825C13.3474 29.9438 12.2757 29.7746 11.1258 29.622C10.018 29.475 8.8322 29.343 7.75423 29.4424C6.66022 29.5432 5.55375 29.8934 4.73265 30.8186L6.2285 32.1461C6.58831 31.7407 7.12639 31.5087 7.93785 31.4339C8.76536 31.3576 9.74597 31.4564 10.8627 31.6046C11.9375 31.7472 13.1486 31.9377 14.2788 31.9811C15.4105 32.0245 16.6056 31.9309 17.6501 31.4139L16.763 29.6214ZM4.75356 30.7957C4.85355 30.6898 5.03016 30.5557 5.28721 30.5125C5.5487 30.4686 5.76843 30.5398 5.91148 30.6199C6.14618 30.7513 6.23734 30.9358 6.23958 30.9399C6.27254 31.0005 6.25669 30.9957 6.23602 30.88C6.19997 30.6782 6.18648 30.3445 6.26185 29.9844C6.33596 29.6303 6.48699 29.2905 6.74425 29.0173C6.99326 28.7528 7.3932 28.4952 8.06743 28.3753L7.71716 26.4062C6.66161 26.5939 5.85984 27.0391 5.28813 27.6463C4.72468 28.2447 4.43598 28.9454 4.30427 29.5747C4.1738 30.198 4.18839 30.7906 4.2672 31.2317C4.30397 31.4375 4.36726 31.6834 4.48266 31.8956C4.52613 31.9755 4.65934 32.211 4.93462 32.3651C5.09796 32.4565 5.33762 32.532 5.61838 32.4849C5.89469 32.4385 6.08991 32.2936 6.20758 32.169L4.75356 30.7957ZM21.9136 17.1617L20.9434 17.4042L20.9454 17.412L20.9475 17.4199L21.9136 17.1617ZM25.5229 18.8915L26.5222 18.928L26.5224 18.9227L25.5229 18.8915ZM22.9448 29.4864L21.986 29.7705L22.5364 31.6281L23.7318 30.1034L22.9448 29.4864ZM28.9159 17.1617L29.8367 17.5518L29.9672 17.2437L29.8861 16.9191L28.9159 17.1617ZM32.5086 18.8915L31.5093 18.8524L31.5092 18.8553L32.5086 18.8915ZM29.9471 29.5862L28.95 29.6616L29.1197 31.908L30.6719 30.2752L29.9471 29.5862ZM33.0574 23.8313L32.163 23.3841L32.1453 23.4195L32.1305 23.4562L33.0574 23.8313ZM33.4067 23.9644L34.3579 24.2729L34.3634 24.2561L34.3682 24.2391L33.4067 23.9644ZM30.4794 30.7838L29.9673 29.9248L29.9609 29.9287L29.9545 29.9326L30.4794 30.7838ZM26.5208 29.2369L27.4974 29.0215L27.4953 29.0126L26.5208 29.2369ZM28.7496 19.141L29.7249 19.3619L27.8157 18.7835L28.7496 19.141ZM23.2775 30.8836L23.6676 31.8044L23.6783 31.7997L23.2775 30.8836ZM19.4187 29.1205L20.4058 28.9601L20.4053 28.9572L19.4187 29.1205ZM22.8837 16.9191C23.0423 17.5536 22.567 17.9192 22.5212 17.9541C22.4101 18.0386 22.3084 18.0777 22.2838 18.0873C22.2148 18.114 22.1626 18.1243 22.1608 18.1247C22.1414 18.1289 22.1441 18.1272 22.1798 18.1231C22.2434 18.1159 22.3548 18.1074 22.5011 18.1043C22.7961 18.098 23.1805 18.1149 23.549 18.1854C23.9325 18.2588 24.2069 18.373 24.3629 18.4969C24.4735 18.5847 24.5293 18.6706 24.5233 18.8602L26.5224 18.9227C26.5497 18.0479 26.1688 17.3769 25.6064 16.9304C25.0893 16.52 24.4541 16.3223 23.9249 16.2211C23.3807 16.1169 22.8492 16.0964 22.4587 16.1047C22.2622 16.1089 22.0884 16.1206 21.9534 16.136C21.8899 16.1432 21.815 16.1535 21.7435 16.1688C21.7155 16.1747 21.6435 16.1905 21.5616 16.2222C21.5305 16.2343 21.424 16.2758 21.3098 16.3627C21.261 16.3998 20.7843 16.7677 20.9434 17.4042L22.8837 16.9191ZM24.5235 18.8549C24.5235 18.8546 24.523 18.8673 24.5189 18.8964C24.5149 18.9246 24.5085 18.9619 24.4988 19.0097C24.479 19.106 24.4488 19.2282 24.4072 19.3778C24.3236 19.6779 24.2041 20.0515 24.0574 20.4883C23.7745 21.3311 23.3732 22.457 23.0155 23.5465C22.6517 24.6547 22.2992 25.8236 22.0809 26.8716C21.874 27.8654 21.7416 28.9457 21.986 29.7705L23.9036 29.2023C23.8153 28.9045 23.8327 28.2695 24.0389 27.2794C24.2339 26.3434 24.5581 25.2596 24.9157 24.1703C25.2795 23.0622 25.6443 22.0456 25.9534 21.1248C26.1028 20.6798 26.2358 20.2663 26.3338 19.9146C26.4248 19.588 26.5112 19.2283 26.5222 18.928L24.5235 18.8549ZM23.7318 30.1034C24.2088 29.4949 24.8266 28.378 25.4571 27.1363C26.1022 25.8658 26.8041 24.3762 27.4512 22.96C28.0989 21.5423 28.695 20.1908 29.129 19.1943C29.346 18.6959 29.5227 18.2858 29.6453 18.0001C29.7065 17.8573 29.7542 17.7455 29.7867 17.6693C29.803 17.6311 29.8154 17.6019 29.8238 17.5822C29.828 17.5723 29.8312 17.5648 29.8333 17.5597C29.8344 17.5571 29.8352 17.5552 29.8358 17.5539C29.8361 17.5532 29.8363 17.5527 29.8364 17.5524C29.8365 17.5522 29.8366 17.5521 29.8366 17.552C29.8366 17.5519 29.8367 17.5518 28.9159 17.1617C27.9952 16.7715 27.9951 16.7716 27.9951 16.7716C27.9951 16.7717 27.9951 16.7718 27.995 16.7719C27.9949 16.7722 27.9947 16.7726 27.9945 16.7732C27.994 16.7744 27.9932 16.7761 27.9922 16.7785C27.9902 16.7833 27.9871 16.7905 27.983 16.8001C27.9749 16.8192 27.9628 16.8478 27.9468 16.8852C27.9149 16.9601 27.8678 17.0705 27.8071 17.2118C27.6859 17.4946 27.5107 17.9012 27.2953 18.3958C26.8644 19.3853 26.2733 20.7252 25.632 22.1288C24.9901 23.5339 24.3011 24.9955 23.6738 26.2308C23.0319 27.495 22.4958 28.4384 22.1578 28.8694L23.7318 30.1034ZM29.8861 16.9191C30.0447 17.5535 29.5693 17.9192 29.5235 17.9541C29.4124 18.0386 29.3107 18.0777 29.2861 18.0873C29.2172 18.114 29.1649 18.1243 29.1631 18.1247C29.1438 18.1288 29.1464 18.1272 29.1821 18.1231C29.2457 18.1159 29.357 18.1074 29.5032 18.1043C29.7979 18.098 30.1816 18.1149 30.5488 18.1854C30.9313 18.2587 31.2027 18.3726 31.3556 18.4948C31.462 18.5799 31.5167 18.6628 31.5093 18.8524L33.5078 18.9305C33.542 18.0557 33.1663 17.3818 32.6044 16.9326C32.0887 16.5204 31.4537 16.3224 30.9255 16.2211C30.3821 16.1169 29.851 16.0964 29.4607 16.1047C29.2643 16.1089 29.0906 16.1206 28.9557 16.136C28.8922 16.1432 28.8173 16.1535 28.7458 16.1688C28.7178 16.1747 28.6458 16.1905 28.5639 16.2222C28.5328 16.2343 28.4263 16.2758 28.3121 16.3627C28.2633 16.3998 27.7866 16.7677 27.9458 17.4042L29.8861 16.9191ZM31.5092 18.8553C31.5074 18.9043 31.486 19.0477 31.4087 19.3275C31.3362 19.5899 31.2318 19.9128 31.1011 20.2956C30.8488 21.0348 30.4876 22.0248 30.1533 23.0404C29.4859 25.0674 28.7919 27.5694 28.95 29.6616L30.9443 29.5109C30.8196 27.8608 31.3814 25.7056 32.0529 23.6659C32.388 22.6481 32.7171 21.7525 32.9939 20.9417C33.1278 20.5495 33.2477 20.1814 33.3364 19.8602C33.4204 19.5565 33.4972 19.2238 33.5079 18.9276L31.5092 18.8553ZM30.6719 30.2752C31.4307 29.477 32.1959 28.0813 32.7738 26.9071C33.3707 25.6941 33.8382 24.5678 33.9844 24.2065L32.1305 23.4562C31.9939 23.7935 31.5467 24.871 30.9793 26.024C30.3928 27.2157 29.7443 28.3482 29.2224 28.8972L30.6719 30.2752ZM33.9519 24.2786C33.7923 24.5977 33.4805 24.7316 33.2238 24.7316V22.7316C32.8339 22.7316 32.3891 22.9319 32.163 23.3841L33.9519 24.2786ZM33.2238 24.7316C32.7032 24.7316 32.293 24.2223 32.4452 23.6897L34.3682 24.2391C34.587 23.4736 34.0105 22.7316 33.2238 22.7316V24.7316ZM32.4555 23.6559C32.2566 24.2692 31.7481 25.823 31.1848 27.2822C30.9022 28.0142 30.614 28.701 30.3512 29.2264C30.2192 29.4903 30.1039 29.6926 30.0092 29.8323C29.8936 30.0029 29.8753 29.9797 29.9673 29.9248L30.9914 31.6427C31.2997 31.459 31.5225 31.1644 31.665 30.9541C31.8284 30.7129 31.9881 30.4246 32.1399 30.1212C32.4446 29.5119 32.7594 28.7569 33.0506 28.0024C33.635 26.4886 34.1577 24.8904 34.3579 24.2729L32.4555 23.6559ZM29.9545 29.9326C29.9624 29.9277 29.8522 29.9847 29.5446 29.9632C29.2632 29.9435 28.9214 29.8645 28.58 29.7325C28.2377 29.6002 27.9401 29.4319 27.7324 29.2642C27.5034 29.0794 27.4888 28.9827 27.4973 29.0215L25.5443 29.4524C25.6776 30.0567 26.0954 30.5131 26.4761 30.8204C26.8782 31.145 27.3674 31.408 27.8589 31.598C28.3512 31.7883 28.8899 31.9224 29.4053 31.9583C29.8945 31.9925 30.4974 31.9475 31.0043 31.6349L29.9545 29.9326ZM27.4953 29.0126C27.42 28.6853 27.4285 28.1394 27.5564 27.3609C27.6804 26.6066 27.8982 25.7346 28.161 24.8036C28.6687 23.0049 29.378 20.8933 29.7249 19.3619L27.7743 18.92C27.4393 20.3991 26.793 22.2877 26.2362 24.2604C25.9667 25.2152 25.7251 26.1716 25.5829 27.0365C25.4448 27.877 25.3805 28.7407 25.5463 29.4612L27.4953 29.0126ZM27.8157 18.7835C27.1517 20.518 26.0565 23.3196 24.9976 25.7404C24.4669 26.9535 23.9538 28.0515 23.5143 28.8665C23.2934 29.2762 23.1032 29.5915 22.9493 29.8075C22.8722 29.9157 22.8167 29.9812 22.7831 30.0157C22.7385 30.0615 22.7705 30.0139 22.8766 29.9674L23.6783 31.7997C23.9175 31.6951 24.0983 31.5319 24.2163 31.4106C24.3454 31.278 24.4665 31.1247 24.578 30.9682C24.8013 30.6549 25.0366 30.2573 25.2746 29.8158C25.753 28.9286 26.2919 27.7718 26.8299 26.542C27.9082 24.077 29.0168 21.2401 29.6835 19.4984L27.8157 18.7835ZM22.8873 29.9628C22.8896 29.9619 22.8511 29.9772 22.7553 29.9853C22.6634 29.993 22.5429 29.9919 22.3974 29.9763C22.1043 29.9449 21.762 29.8604 21.433 29.7286C21.1008 29.5956 20.824 29.4312 20.636 29.2655C20.4423 29.0949 20.4098 28.9848 20.4057 28.9601L18.4316 29.2809C18.5357 29.9216 18.9169 30.4164 19.3137 30.7661C19.7162 31.1207 20.2065 31.3919 20.6894 31.5853C21.1753 31.7799 21.6958 31.9126 22.1845 31.965C22.6469 32.0145 23.1951 32.0045 23.6676 31.8043L22.8873 29.9628ZM20.4053 28.9572C20.3423 28.5765 20.4275 27.8312 20.6859 26.7353C20.933 25.6875 21.2959 24.4799 21.6672 23.249C22.0333 22.0351 22.409 20.7939 22.6585 19.7342C22.7835 19.2034 22.8829 18.6936 22.9322 18.2383C22.9793 17.8037 22.9925 17.3256 22.8797 16.9035L20.9475 17.4199C20.9636 17.4801 20.983 17.6621 20.9439 18.0228C20.907 18.3628 20.8277 18.7835 20.7118 19.2759C20.4794 20.2625 20.1244 21.4382 19.7524 22.6714C19.3856 23.8876 19.0032 25.1572 18.7393 26.2763C18.4868 27.3474 18.2955 28.4586 18.4321 29.2838L20.4053 28.9572ZM29.3151 38.9171L28.3281 39.0777L28.3282 39.0784L29.3151 38.9171ZM34.3215 17.1284L35.3038 16.9413L35.2985 16.9134L35.2917 16.8859L34.3215 17.1284ZM37.9142 19.2407L36.9202 19.1312L36.9199 19.1339L37.9142 19.2407ZM33.4899 35.0916L32.5149 34.8692L34.4554 35.3519L33.4899 35.0916ZM41.2573 17.2615L41.7599 18.126L41.7653 18.1228L41.2573 17.2615ZM44.7169 18.8748L45.5861 18.3803L45.5858 18.3798L44.7169 18.8748ZM39.6273 30.9002L39.4288 29.9201L39.4204 29.9219L39.6273 30.9002ZM36.3008 29.2868L37.0792 28.6591L35.9951 27.3148L35.3689 28.9242L36.3008 29.2868ZM32.9077 40.8631L33.8867 41.0671L33.8908 41.0474L33.8941 41.0275L32.9077 40.8631ZM41.6066 18.3093L41.9814 17.3822L41.9735 17.379L41.9656 17.376L41.6066 18.3093ZM36.4837 28.8045L35.5537 28.4372L35.2332 29.2486L35.9937 29.6762L36.4837 28.8045ZM30.3021 38.7565C30.2402 38.3762 30.2505 37.8113 30.3527 37.0546C30.4531 36.311 30.6336 35.4414 30.8736 34.4771C31.3541 32.5464 32.0538 30.3112 32.7655 28.0625C33.4721 25.8298 34.1921 23.5795 34.6915 21.6701C34.9415 20.7143 35.1422 19.8217 35.2585 19.0432C35.3715 18.2861 35.4194 17.5479 35.3038 16.9413L33.3392 17.3155C33.39 17.5822 33.3848 18.0487 33.2804 18.7479C33.1792 19.4257 32.998 20.2408 32.7566 21.164C32.2731 23.0125 31.572 25.2052 30.8587 27.4591C30.1504 29.697 29.431 31.9922 28.9328 33.9941C28.6835 34.996 28.4846 35.9433 28.3707 36.7869C28.2586 37.6174 28.2195 38.4101 28.3281 39.0777L30.3021 38.7565ZM35.2917 16.8859C35.4669 17.5868 34.8942 17.9488 34.8423 17.9803C34.7169 18.0564 34.6056 18.0845 34.5826 18.0905C34.5116 18.1089 34.4591 18.1132 34.4588 18.1132C34.4413 18.1149 34.4465 18.1136 34.4848 18.1134C34.5534 18.1131 34.6713 18.1169 34.8245 18.1298C35.133 18.1558 35.5349 18.215 35.9177 18.3271C36.3151 18.4436 36.6051 18.5923 36.7702 18.7448C36.8957 18.8608 36.9392 18.9589 36.9202 19.1312L38.9081 19.3503C39.0056 18.4664 38.6561 17.7641 38.1272 17.2756C37.6379 16.8236 37.0121 16.5638 36.4802 16.4079C35.9336 16.2477 35.3926 16.1706 34.9927 16.1369C34.7916 16.1199 34.614 16.1129 34.4766 16.1134C34.4118 16.1137 34.3364 16.1157 34.2645 16.1227C34.2371 16.1254 34.164 16.1328 34.0795 16.1548C34.0497 16.1625 33.9333 16.1925 33.8048 16.2705C33.7496 16.3039 33.1756 16.6679 33.3514 17.3709L35.2917 16.8859ZM36.9199 19.1339C36.8766 19.5368 36.6839 20.3262 36.3596 21.4615C36.0432 22.5691 35.6267 23.9229 35.17 25.4138C34.2615 28.3799 33.1981 31.875 32.5149 34.8692L34.4648 35.3141C35.1289 32.4037 36.1695 28.9796 37.0823 25.9995C37.5363 24.5174 37.9597 23.1413 38.2826 22.0108C38.5977 20.908 38.8436 19.951 38.9084 19.3476L36.9199 19.1339ZM34.4554 35.3519C35.6419 30.9498 37.3809 26.6531 38.9142 23.4036C39.6803 21.7798 40.3901 20.4282 40.9469 19.4649C41.2262 18.9816 41.4604 18.6074 41.6391 18.3494C41.7292 18.2195 41.7963 18.1318 41.8411 18.079C41.9097 17.9983 41.8756 18.0587 41.7599 18.126L40.7547 16.397C40.5497 16.5162 40.3955 16.6915 40.3163 16.7849C40.2134 16.9061 40.1051 17.0517 39.9951 17.2105C39.7737 17.5301 39.5093 17.9554 39.2153 18.4641C38.6254 19.4847 37.8902 20.8869 37.1054 22.5501C35.5367 25.8747 33.7496 30.2851 32.5243 34.8314L34.4554 35.3519ZM41.7653 18.1228C41.6721 18.1778 41.6775 18.1331 41.883 18.1483C42.0574 18.1612 42.2929 18.2128 42.5538 18.317C43.0872 18.53 43.5816 18.9023 43.848 19.3699L45.5858 18.3798C45.0372 17.417 44.1262 16.7913 43.2956 16.4596C42.8746 16.2915 42.4386 16.184 42.0308 16.1537C41.6541 16.1258 41.1668 16.1539 40.7493 16.4001L41.7653 18.1228ZM43.8477 19.3694C43.8774 19.4216 43.945 19.6053 43.9746 19.99C44.0024 20.3526 43.9908 20.8136 43.9331 21.351C43.8178 22.4248 43.5275 23.7201 43.0862 24.9895C42.6436 26.2629 42.0655 27.4627 41.3987 28.371C40.7176 29.299 40.0388 29.7965 39.4288 29.9201L39.8259 31.8803C41.1452 31.613 42.2046 30.6531 43.011 29.5545C43.8318 28.4363 44.4907 27.0403 44.9753 25.6462C45.4613 24.2483 45.7885 22.8043 45.9217 21.5646C45.9882 20.9453 46.0086 20.356 45.9687 19.8369C45.9305 19.3398 45.8308 18.8104 45.5861 18.3803L43.8477 19.3694ZM39.4204 29.9219C39.4669 29.912 39.3835 29.9342 39.106 29.8454C38.8629 29.7676 38.5716 29.6376 38.2699 29.4751C37.9713 29.3142 37.6862 29.1343 37.4582 28.9703C37.3444 28.8885 37.2511 28.8151 37.1807 28.7544C37.1045 28.6887 37.0775 28.657 37.0792 28.6591L35.5224 29.9146C35.715 30.1534 36.013 30.3945 36.2905 30.594C36.5901 30.8095 36.9485 31.035 37.3214 31.2359C37.6912 31.4351 38.0995 31.6232 38.4963 31.7502C38.8586 31.8662 39.3553 31.9799 39.8343 31.8786L39.4204 29.9219ZM35.3689 28.9242C33.9268 32.63 32.5694 36.8103 31.9213 40.6987L33.8941 41.0275C34.5101 37.3315 35.814 33.2953 37.2327 29.6495L35.3689 28.9242ZM31.9288 40.6592C31.9986 40.3238 32.2203 40.1419 32.3415 40.0691C32.4555 40.0005 32.5457 39.9843 32.5582 39.9819C32.5893 39.9762 32.5579 39.9853 32.4404 39.9747C32.2225 39.9552 31.8907 39.8849 31.5379 39.7524C31.1841 39.6195 30.8643 39.4446 30.6351 39.2481C30.4075 39.0528 30.3231 38.8852 30.302 38.7558L28.3282 39.0784C28.4484 39.8139 28.8735 40.3719 29.333 40.7661C29.7909 41.1589 30.336 41.4373 30.8346 41.6246C31.3342 41.8123 31.8424 41.9291 32.2617 41.9667C32.4629 41.9848 32.6994 41.99 32.924 41.9482C33.0332 41.9279 33.2016 41.8856 33.3721 41.7831C33.5498 41.6762 33.8064 41.4524 33.8867 41.0671L31.9288 40.6592ZM41.9656 17.376C41.5144 17.2024 41.1502 17.4083 41.0783 17.45C40.9598 17.5186 40.8762 17.5974 40.836 17.6373C40.7474 17.7249 40.6704 17.8245 40.613 17.9031C40.4901 18.0714 40.3445 18.3003 40.1854 18.5677C39.8628 19.1096 39.438 19.8887 38.9519 20.8463C37.9781 22.7644 36.7384 25.4374 35.5537 28.4372L37.4138 29.1718C38.5743 26.2337 39.7879 23.6176 40.7352 21.7517C41.2096 20.8174 41.6122 20.0808 41.904 19.5905C42.0521 19.3417 42.1604 19.1754 42.2282 19.0826C42.266 19.0308 42.2685 19.0334 42.2424 19.0592C42.2334 19.0682 42.1767 19.125 42.0808 19.1806C42.0314 19.2092 41.6853 19.411 41.2476 19.2427L41.9656 17.376ZM35.9937 29.6762C36.6646 30.0533 37.375 30.0593 38.0175 29.7805C38.606 29.525 39.0898 29.0546 39.4805 28.5542C40.266 27.548 40.9265 26.0905 41.4346 24.6585C41.9494 23.2078 42.3399 21.6908 42.553 20.5022C42.6586 19.9127 42.7266 19.3717 42.7368 18.9461C42.7418 18.7401 42.735 18.5094 42.6911 18.2963C42.6693 18.1905 42.629 18.0417 42.5454 17.8898C42.4624 17.7391 42.2926 17.508 41.9814 17.3822L41.2318 19.2364C40.9695 19.1304 40.8414 18.9417 40.7934 18.8545C40.7447 18.7661 40.7326 18.7019 40.7323 18.7002C40.7313 18.6954 40.7409 18.7513 40.7374 18.8978C40.7307 19.1772 40.6819 19.6049 40.5843 20.1493C40.3909 21.2285 40.0288 22.6399 39.5498 23.9897C39.0641 25.3582 38.4896 26.5734 37.904 27.3234C37.6091 27.7012 37.3732 27.8798 37.2212 27.9458C37.1232 27.9884 37.0721 27.9881 36.9738 27.9328L35.9937 29.6762ZM44.3842 28.9875L43.3971 29.1474L43.3983 29.1549L44.3842 28.9875ZM49.7067 7.08231L50.6971 6.9446L50.6898 6.89164L50.6768 6.83978L49.7067 7.08231ZM52.9833 9.31108L51.9893 9.20151L51.989 9.20481L52.9833 9.31108ZM48.243 26.6589L47.2604 26.4733L49.1701 27.0336L48.243 26.6589ZM54.2806 17.1118L54.1883 18.1075L54.1917 18.1078L54.2806 17.1118ZM57.2579 18.642L56.2985 18.9241L56.2995 18.9275L57.2579 18.642ZM54.3971 29.7027L53.3975 29.6745L53.3287 32.1173L55.0902 30.4235L54.3971 29.7027ZM57.6072 23.8313L56.7127 23.3841L56.6932 23.4231L56.6772 23.4637L57.6072 23.8313ZM57.9564 23.9644L58.9077 24.2729L58.9131 24.2561L58.918 24.2391L57.9564 23.9644ZM54.9958 30.9335L54.8607 29.9426L54.8592 29.9428L54.9958 30.9335ZM50.9042 28.7712L49.9138 28.9101L49.9156 28.9214L50.9042 28.7712ZM53.7817 18.4257L54.7766 18.5264L54.8716 17.5874L53.9397 17.4383L53.7817 18.4257ZM47.9769 30.8836L46.977 30.8965L46.9782 30.9959L46.9991 31.0931L47.9769 30.8836ZM45.3714 28.8275C45.3095 28.446 45.3207 27.8724 45.4258 27.1004C45.5289 26.3424 45.7136 25.4539 45.9593 24.4689C46.4509 22.4978 47.1682 20.2124 47.9037 17.9299C48.6343 15.6628 49.3853 13.3914 49.9234 11.4989C50.1929 10.5515 50.4154 9.67733 50.5567 8.92978C50.6928 8.21024 50.7751 7.50544 50.6971 6.9446L48.7162 7.22002C48.7463 7.43676 48.7221 7.86817 48.5916 8.55811C48.4664 9.22005 48.2623 10.0286 47.9997 10.9519C47.4739 12.8007 46.7394 15.0221 46.0001 17.3165C45.2657 19.5956 44.5287 21.9403 44.0187 23.9849C43.7636 25.0078 43.5607 25.9735 43.444 26.8308C43.3293 27.6741 43.2884 28.4769 43.3971 29.1474L45.3714 28.8275ZM50.6768 6.83978C50.8402 7.4935 50.3461 7.85937 50.2427 7.92474C50.1066 8.01072 49.9837 8.04054 49.9573 8.04713C49.8778 8.06694 49.818 8.07038 49.8155 8.07056C49.7915 8.07229 49.7901 8.07095 49.823 8.07191C49.88 8.07358 49.9832 8.08047 50.1197 8.09763C50.3946 8.13219 50.7525 8.2018 51.0919 8.32214C51.4426 8.44647 51.6967 8.59795 51.8423 8.75116C51.9563 8.8711 52.0123 8.99293 51.9893 9.20151L53.9773 9.42065C54.0707 8.57306 53.7733 7.87989 53.2921 7.37351C52.8426 6.9004 52.2599 6.61423 51.7602 6.4371C51.2493 6.25597 50.7434 6.1603 50.3691 6.11325C50.181 6.0896 50.0132 6.07662 49.8815 6.07277C49.82 6.07097 49.7448 6.07045 49.6711 6.07578C49.6437 6.07776 49.5651 6.08369 49.4733 6.10658C49.4406 6.11472 49.3132 6.14622 49.1743 6.23402C49.0679 6.30122 48.5726 6.66904 48.7365 7.32485L50.6768 6.83978ZM51.989 9.20481C51.942 9.64426 51.7166 10.5367 51.3433 11.8194C50.9789 13.0713 50.5034 14.5981 49.9937 16.2641C48.9818 19.5716 47.8378 23.4163 47.2604 26.4733L49.2256 26.8445C49.7792 23.9138 50.889 20.1739 51.9062 16.8492C52.4111 15.1991 52.8941 13.6478 53.2636 12.3783C53.6241 11.1396 53.9082 10.0673 53.9776 9.41735L51.989 9.20481ZM49.1701 27.0336C49.9671 25.0618 51.0531 22.6848 52.1268 20.8341C52.6667 19.9035 53.1799 19.1474 53.6287 18.6459C53.8538 18.3943 54.0332 18.2405 54.1618 18.1585C54.2973 18.0721 54.2932 18.1172 54.1883 18.1075L54.373 16.1161C53.8647 16.0689 53.4199 16.2596 53.0865 16.4721C52.7463 16.689 52.4288 16.9875 52.1383 17.3121C51.5559 17.9629 50.963 18.8545 50.3968 19.8304C49.2584 21.7928 48.1323 24.2642 47.3159 26.2842L49.1701 27.0336ZM54.1917 18.1078C54.4785 18.1334 55.0522 18.3139 55.6114 18.5916C55.879 18.7245 56.0991 18.8582 56.2467 18.9709C56.3206 19.0273 56.3578 19.0644 56.3704 19.0787C56.3907 19.1017 56.3354 19.0495 56.2985 18.9241L58.2172 18.3598C58.1388 18.0931 57.9884 17.8896 57.8704 17.7558C57.7447 17.6134 57.6005 17.4882 57.4603 17.3811C57.1796 17.1669 56.8404 16.9689 56.5009 16.8003C55.846 16.4751 55.0142 16.1733 54.3696 16.1157L54.1917 18.1078ZM56.2995 18.9275C56.2955 18.914 56.3203 19.023 56.2795 19.3423C56.2424 19.6317 56.1646 20.0019 56.049 20.4455C55.8179 21.3325 55.4631 22.413 55.0793 23.5541C54.7004 24.6804 54.2936 25.8646 53.9798 26.9105C53.675 27.9262 53.4183 28.9341 53.3975 29.6745L55.3967 29.7308C55.4091 29.2903 55.5848 28.5206 55.8954 27.4853C56.197 26.4802 56.5886 25.34 56.9749 24.1918C57.3561 23.0584 57.7331 21.9142 57.9844 20.9498C58.11 20.4677 58.2109 20.0055 58.2633 19.5962C58.3118 19.2168 58.3367 18.7609 58.2163 18.3565L56.2995 18.9275ZM55.0902 30.4235C55.5074 30.0223 55.9054 29.4575 56.2583 28.8829C56.6195 28.2949 56.9686 27.6379 57.2788 27.011C57.8992 25.7574 58.3885 24.5749 58.5371 24.199L56.6772 23.4637C56.5431 23.803 56.076 24.9324 55.4863 26.1239C55.1916 26.7194 54.8723 27.3182 54.5541 27.8362C54.2277 28.3677 53.9354 28.7592 53.704 28.9818L55.0902 30.4235ZM58.5016 24.2786C58.342 24.5977 58.0303 24.7316 57.7735 24.7316V22.7316C57.3836 22.7316 56.9388 22.9319 56.7127 23.3841L58.5016 24.2786ZM57.7735 24.7316C57.2529 24.7316 56.8427 24.2223 56.9949 23.6897L58.918 24.2391C59.1367 23.4736 58.5602 22.7316 57.7735 22.7316V24.7316ZM57.0052 23.6559C56.8054 24.272 56.255 25.9678 55.6661 27.5179C55.3701 28.2968 55.0744 29.0122 54.8164 29.5287C54.6854 29.7909 54.5811 29.9673 54.5081 30.0676C54.471 30.1187 54.463 30.1206 54.4861 30.1004C54.4947 30.0928 54.6241 29.9749 54.8607 29.9426L55.131 31.9243C55.4591 31.8796 55.6885 31.7059 55.8046 31.6042C55.935 31.4898 56.0418 31.3592 56.1255 31.2441C56.2942 31.0122 56.456 30.722 56.6056 30.4224C56.909 29.8151 57.2329 29.0252 57.5357 28.2282C58.1443 26.6265 58.7083 24.8876 58.9077 24.2729L57.0052 23.6559ZM54.8592 29.9428C54.3912 30.0074 53.6223 29.8657 52.923 29.5223C52.586 29.3568 52.3147 29.1677 52.1314 28.9844C51.9434 28.7964 51.9001 28.6689 51.8929 28.6211L49.9156 28.9214C50.0081 29.5305 50.3453 30.0268 50.7171 30.3986C51.0936 30.775 51.5614 31.0818 52.0414 31.3175C52.9763 31.7767 54.1534 32.0591 55.1325 31.9241L54.8592 29.9428ZM51.8945 28.6324C51.8652 28.423 51.9305 27.9204 52.1711 27.0688C52.3967 26.2705 52.7265 25.3253 53.0857 24.3135C53.4403 23.3148 53.8223 22.2545 54.1316 21.2708C54.4375 20.2982 54.695 19.3322 54.7766 18.5264L52.7867 18.3251C52.7269 18.9165 52.5229 19.7198 52.2238 20.6708C51.9281 21.6108 51.5616 22.6285 51.201 23.6444C50.845 24.6472 50.4928 25.6533 50.2465 26.5249C50.0152 27.3434 49.8185 28.2296 49.9139 28.9101L51.8945 28.6324ZM53.9397 17.4383C53.654 17.3926 53.4198 17.4687 53.284 17.5294C53.1432 17.5922 53.0303 17.673 52.9499 17.7381C52.7892 17.8682 52.6424 18.0311 52.5163 18.1861C52.2578 18.504 51.9669 18.9387 51.6654 19.4328C51.0571 20.4302 50.3386 21.7812 49.6538 23.2044C48.9684 24.6289 48.306 26.1484 47.8143 27.4856C47.5687 28.1538 47.3611 28.7887 47.2149 29.3509C47.073 29.8963 46.9711 30.4384 46.977 30.8965L48.9768 30.8707C48.9744 30.6843 49.0216 30.3495 49.1504 29.8544C49.2749 29.3761 49.4595 28.8068 49.6915 28.1758C50.1552 26.9147 50.79 25.4559 51.4561 24.0715C52.1227 22.686 52.8097 21.3976 53.3728 20.4744C53.6572 20.0082 53.8936 19.6624 54.0679 19.4481C54.1098 19.3965 54.144 19.3578 54.1704 19.33C54.1979 19.301 54.2103 19.291 54.2082 19.2927C54.2067 19.2939 54.1978 19.301 54.182 19.3113C54.1666 19.3213 54.1389 19.338 54.0995 19.3556C54.0314 19.386 53.8574 19.4506 53.6237 19.4132L53.9397 17.4383ZM46.9991 31.0931C46.9357 30.7974 47.025 30.4899 47.2263 30.2749C47.3809 30.1098 47.5439 30.0598 47.5802 30.0491C47.6627 30.0247 47.6744 30.0403 47.5586 30.0334C47.3615 30.0218 47.0315 29.9599 46.6666 29.8296C46.3027 29.6996 45.9666 29.5238 45.7235 29.3226C45.4806 29.1216 45.3921 28.9493 45.3701 28.82L43.3983 29.1549C43.5261 29.9071 43.974 30.4708 44.4484 30.8634C44.9226 31.2558 45.4846 31.5311 45.9939 31.713C46.5023 31.8946 47.0204 32.0052 47.4409 32.03C47.6338 32.0413 47.8965 32.0411 48.1467 31.9672C48.2668 31.9317 48.4928 31.8485 48.6863 31.6419C48.9264 31.3854 49.0305 31.028 48.9547 30.674L46.9991 31.0931ZM57.4076 28.7546L56.4647 29.0877L56.4655 29.0901L57.4076 28.7546ZM61.1665 17.4112L61.707 18.2525L61.7138 18.2481L61.1665 17.4112ZM65.1251 17.4943L64.5704 18.3264L64.5779 18.3314L64.5854 18.3362L65.1251 17.4943ZM65.358 18.3093L64.9354 19.2156L65.5563 19.5051L66.0505 19.0307L65.358 18.3093ZM60.7008 29.9688L60.0238 30.7047L60.024 30.7049L60.7008 29.9688ZM63.5117 19.9726L62.6953 19.3951L61.8142 20.6409L63.3081 20.9516L63.5117 19.9726ZM65.3081 18.7085L65.4399 17.7171L65.4272 17.7156L65.3081 18.7085ZM61.9815 30.7671L62.4067 31.6723L62.4077 31.6718L61.9815 30.7671ZM58.3505 28.4215C58.1772 27.9311 58.1184 27.148 58.2224 26.1399C58.3242 25.1545 58.5717 24.0449 58.9276 22.9573C59.2837 21.8694 59.739 20.8315 60.2418 19.9837C60.7563 19.116 61.2702 18.5331 61.707 18.2525L60.6261 16.5698C59.8071 17.0959 59.1006 17.987 58.5215 18.9635C57.9307 19.9598 57.4193 21.1361 57.0268 22.3352C56.6343 23.5346 56.3517 24.7848 56.233 25.9346C56.1167 27.0617 56.1473 28.1893 56.4647 29.0877L58.3505 28.4215ZM61.7138 18.2481C61.7619 18.2167 61.9133 18.1501 62.2059 18.1023C62.4807 18.0574 62.8103 18.0402 63.1526 18.0529C63.4941 18.0655 63.8234 18.1069 64.0952 18.1674C64.3882 18.2326 64.5346 18.3025 64.5704 18.3264L65.6798 16.6623C65.3413 16.4366 64.914 16.3007 64.5297 16.2152C64.1243 16.1249 63.6729 16.0707 63.2264 16.0542C62.7806 16.0378 62.3151 16.058 61.8835 16.1285C61.4697 16.1961 61.0036 16.3229 60.6193 16.5742L61.7138 18.2481ZM64.5854 18.3362C64.6501 18.3777 64.607 18.3673 64.557 18.2754C64.499 18.1691 64.4768 18.036 64.4959 17.9088C64.5124 17.7993 64.5541 17.7263 64.577 17.6915C64.5901 17.6715 64.6036 17.6542 64.6169 17.6387C64.6238 17.6307 64.6311 17.6226 64.639 17.6143C64.643 17.6102 64.6472 17.6059 64.6516 17.6015C64.6537 17.5993 64.656 17.5971 64.6583 17.5948C64.6595 17.5937 64.6606 17.5926 64.6618 17.5914C64.6624 17.5908 64.663 17.5903 64.6636 17.5897C64.6639 17.5894 64.6644 17.589 64.6645 17.5888C64.665 17.5884 64.6654 17.5879 65.358 18.3093C66.0505 19.0307 66.0509 19.0303 66.0514 19.0298C66.0516 19.0297 66.052 19.0292 66.0523 19.0289C66.053 19.0283 66.0536 19.0277 66.0543 19.0271C66.0555 19.0258 66.0569 19.0245 66.0582 19.0232C66.0609 19.0206 66.0637 19.0178 66.0667 19.0148C66.0726 19.0089 66.079 19.0023 66.0859 18.9951C66.0996 18.9808 66.1152 18.9637 66.1322 18.944C66.1657 18.9051 66.2067 18.8533 66.2486 18.7894C66.3292 18.6668 66.4343 18.468 66.4736 18.2068C66.5157 17.9278 66.4757 17.6169 66.3133 17.3187C66.1588 17.0351 65.9244 16.8189 65.6648 16.6524L64.5854 18.3362ZM65.7805 17.403C65.0772 17.075 64.3795 17.2089 63.82 17.5392C63.2986 17.8469 62.8585 18.3394 62.492 18.8628C61.7509 19.9212 61.1001 21.4143 60.5967 22.917C60.0893 24.4317 59.7058 26.0342 59.5298 27.3527C59.4423 28.0081 59.4011 28.6287 59.4335 29.1487C59.4497 29.4081 59.4859 29.6743 59.5596 29.9209C59.6294 30.1548 59.7592 30.4613 60.0238 30.7047L61.3779 29.2328C61.4865 29.3328 61.4951 29.4128 61.476 29.3488C61.4607 29.2974 61.4402 29.1941 61.4296 29.0242C61.4085 28.6855 61.4334 28.2076 61.5122 27.6174C61.6688 26.4446 62.0192 24.967 62.4931 23.5523C62.9711 22.1256 63.549 20.84 64.1302 20.01C64.4249 19.5893 64.6693 19.3602 64.8366 19.2615C64.9121 19.2169 64.9462 19.2142 64.944 19.2144C64.9343 19.2154 64.9258 19.2112 64.9354 19.2156L65.7805 17.403ZM60.024 30.7049C60.2929 30.9522 60.6526 31.105 61.0589 31.0784C61.4264 31.0544 61.72 30.8907 61.9223 30.7391C62.3146 30.4449 62.6412 29.985 62.9052 29.5354C63.4549 28.5991 63.9835 27.2651 64.3866 25.9186C64.79 24.5709 65.0934 23.1253 65.1519 21.9539C65.1806 21.3782 65.1552 20.789 65.0043 20.2909C64.8557 19.8003 64.4974 19.1562 63.7154 18.9935L63.3081 20.9516C63.0458 20.8971 63.0348 20.688 63.0902 20.8708C63.1433 21.0461 63.1786 21.3685 63.1544 21.8542C63.1069 22.8055 62.8488 24.0815 62.4706 25.345C62.0919 26.6099 61.6184 27.777 61.1805 28.5227C60.9508 28.914 60.7873 29.0903 60.7224 29.139C60.6961 29.1587 60.7694 29.0931 60.9285 29.0827C61.1264 29.0697 61.2897 29.1517 61.3777 29.2327L60.024 30.7049ZM63.5117 19.9726C64.3282 20.55 64.328 20.5502 64.3279 20.5504C64.3279 20.5504 64.3278 20.5506 64.3277 20.5507C64.3276 20.5509 64.3274 20.5511 64.3273 20.5512C64.3271 20.5515 64.3269 20.5518 64.3268 20.5519C64.3266 20.5522 64.3266 20.5522 64.3268 20.5519C64.3273 20.5513 64.3286 20.5495 64.3307 20.5466C64.3349 20.5408 64.3424 20.5306 64.353 20.5166C64.3741 20.4887 64.4068 20.4463 64.4491 20.3946C64.5352 20.2895 64.6535 20.155 64.7875 20.0275C64.9259 19.8958 65.054 19.7975 65.1577 19.7405C65.2695 19.6792 65.2693 19.711 65.1889 19.7014L65.4272 17.7156C64.931 17.6561 64.4983 17.821 64.1954 17.9873C63.8843 18.158 63.6153 18.382 63.4086 18.5788C63.1975 18.7797 63.0226 18.98 62.9018 19.1275C62.8407 19.2021 62.7916 19.2655 62.7567 19.3117C62.7392 19.3349 62.7252 19.3539 62.7149 19.368C62.7097 19.375 62.7055 19.3809 62.7022 19.3854C62.7006 19.3877 62.6992 19.3897 62.698 19.3913C62.6975 19.3921 62.697 19.3928 62.6965 19.3935C62.6963 19.3938 62.6961 19.3941 62.6959 19.3944C62.6958 19.3945 62.6956 19.3947 62.6956 19.3947C62.6954 19.3949 62.6953 19.3951 63.5117 19.9726ZM65.1763 19.6998C65.2123 19.7046 65.2554 19.7115 65.3278 19.8186C65.4187 19.9531 65.5204 20.208 65.5776 20.6236C65.6913 21.4516 65.5899 22.6315 65.2636 23.9258C64.9404 25.2079 64.416 26.5244 63.7502 27.6162C63.0742 28.7248 62.3112 29.5064 61.5554 29.8625L62.4077 31.6718C63.6644 31.0798 64.6832 29.9279 65.4578 28.6575C66.2427 27.3703 66.838 25.8624 67.2029 24.4147C67.5648 22.9791 67.7201 21.5239 67.5589 20.3513C67.4096 19.2649 66.8839 17.9092 65.4398 17.7172L65.1763 19.6998ZM61.5564 29.862C61.2484 30.0067 60.5748 30.107 59.8893 29.9055C59.257 29.7196 58.661 29.2932 58.3496 28.4191L56.4655 29.0901C57.0191 30.6443 58.1611 31.4821 59.3252 31.8243C60.436 32.1508 61.6169 32.0432 62.4067 31.6723L61.5564 29.862ZM66.1231 29.1538L67.1101 28.9934L67.11 28.9924L66.1231 29.1538ZM68.435 17.1284L67.4648 17.3709L67.4678 17.3827L67.471 17.3943L68.435 17.1284ZM72.2439 18.8915L73.243 18.9331L73.2434 18.9227L72.2439 18.8915ZM69.7157 28.0228L68.7209 27.921L70.6676 28.3293L69.7157 28.0228ZM75.6702 17.1118L75.578 18.1075L75.5812 18.1078L75.6702 17.1118ZM78.3979 18.5089L79.357 18.2256L79.3549 18.2189L78.3979 18.5089ZM76.9841 24.8958L76.9406 25.8949L78.315 25.9548L77.9479 24.629L76.9841 24.8958ZM75.1712 18.4257L76.166 18.3237L76.0876 17.5597L75.3292 17.4383L75.1712 18.4257ZM69.8987 30.8004L68.8987 30.8068L68.8992 30.8864L68.9123 30.9648L69.8987 30.8004ZM69.7157 30.9501L69.9118 29.9695L69.8718 29.9615L69.8312 29.9568L69.7157 30.9501ZM67.11 28.9924C67.0354 28.5368 67.1162 27.7419 67.3541 26.6419C67.5839 25.5793 67.9267 24.3719 68.2777 23.1487C68.6236 21.9429 68.9799 20.7144 69.2135 19.6672C69.3306 19.1422 69.4228 18.6377 69.4661 18.1862C69.5077 17.754 69.5145 17.2811 69.399 16.8625L67.471 17.3943C67.4886 17.4581 67.5094 17.6401 67.4753 17.995C67.4431 18.3306 67.3699 18.7455 67.2615 19.2317C67.0439 20.2068 66.7078 21.3683 66.3552 22.5971C66.0076 23.8085 65.6456 25.0804 65.3993 26.219C65.1611 27.3202 64.9944 28.4485 65.1362 29.3152L67.11 28.9924ZM69.4051 16.8859C69.5729 17.5567 69.04 17.9236 69.0139 17.942C68.9031 18.0202 68.8033 18.0553 68.7807 18.0634C68.7148 18.0869 68.6657 18.0956 68.6654 18.0957C68.6497 18.0987 68.6563 18.0967 68.6954 18.0928C68.7662 18.0858 68.887 18.0782 69.044 18.0764C69.3601 18.0727 69.7734 18.0934 70.1714 18.169C70.5852 18.2477 70.8909 18.3689 71.069 18.5043C71.2018 18.6054 71.2496 18.6926 71.2443 18.8602L73.2434 18.9227C73.2714 18.0258 72.8576 17.3521 72.2799 16.9126C71.7475 16.5075 71.0937 16.3085 70.5449 16.2042C69.9803 16.0969 69.4278 16.0718 69.021 16.0765C68.8164 16.0788 68.6364 16.0889 68.4978 16.1026C68.4323 16.1091 68.357 16.1183 68.2861 16.132C68.2582 16.1374 68.1882 16.1513 68.1086 16.1797C68.0791 16.1903 67.9742 16.2278 67.8602 16.3083C67.8309 16.329 67.2966 16.698 67.4648 17.3709L69.4051 16.8859ZM71.2447 18.8498C71.2392 18.9817 71.1523 19.3385 70.9305 20.0046C70.7195 20.6379 70.4534 21.3656 70.1527 22.2399C69.5719 23.928 68.9167 26.0075 68.7209 27.921L70.7105 28.1246C70.8806 26.462 71.4645 24.5746 72.0439 22.8905C72.3232 22.0786 72.6174 21.2689 72.828 20.6366C73.0277 20.037 73.2235 19.4 73.243 18.9331L71.2447 18.8498ZM70.6676 28.3293C71.2896 26.3977 72.3123 23.6757 73.3914 21.4728C73.9338 20.3656 74.4692 19.4337 74.953 18.8033C75.1964 18.4862 75.3963 18.2857 75.5447 18.1761C75.7026 18.0594 75.7001 18.1188 75.578 18.1075L75.7624 16.116C75.1911 16.0631 74.7052 16.3097 74.3562 16.5676C73.9975 16.8326 73.6668 17.1942 73.3664 17.5856C72.7629 18.3721 72.159 19.4423 71.5953 20.593C70.4623 22.9059 69.4059 25.7225 68.7638 27.7162L70.6676 28.3293ZM75.5812 18.1078C75.8793 18.1344 76.3951 18.2926 76.8765 18.5315C77.1089 18.6468 77.2934 18.7616 77.4138 18.8564C77.5758 18.9839 77.4937 18.973 77.4409 18.7989L79.3549 18.2189C79.219 17.7703 78.8708 17.458 78.6512 17.2851C78.3901 17.0795 78.0778 16.8949 77.7654 16.7399C77.1574 16.4382 76.3925 16.1723 75.7591 16.1157L75.5812 18.1078ZM77.4389 18.7923C77.3867 18.6157 77.4354 18.5274 77.4002 18.6805C77.3752 18.7888 77.3253 18.9473 77.2445 19.1691C77.1652 19.3867 77.0682 19.6328 76.9571 19.9152C76.8479 20.1929 76.7274 20.4999 76.6093 20.82C76.3747 21.4563 76.1369 22.1791 76.0002 22.9031C75.8653 23.618 75.813 24.4135 76.0204 25.1627L77.9479 24.629C77.856 24.297 77.8577 23.8451 77.9655 23.2741C78.0716 22.7121 78.2651 22.1106 78.4858 21.5119C78.5955 21.2146 78.7086 20.9264 78.8183 20.6473C78.9263 20.3729 79.0337 20.1005 79.1236 19.854C79.2119 19.6116 79.296 19.3603 79.3492 19.1291C79.3921 18.9426 79.4632 18.585 79.3569 18.2256L77.4389 18.7923ZM77.0277 23.8968C75.9777 23.851 75.5968 23.5372 75.4378 23.3106C75.2478 23.0397 75.1612 22.5957 75.2373 21.9379C75.3114 21.2974 75.5205 20.6153 75.7308 20.0064C75.8257 19.7314 75.9421 19.4124 76.0138 19.1966C76.0523 19.0808 76.0913 18.9563 76.1198 18.8391C76.1406 18.7535 76.189 18.5485 76.166 18.3237L74.1764 18.5278C74.1617 18.3841 74.1928 18.2989 74.1763 18.3668C74.1675 18.403 74.1492 18.4657 74.116 18.5657C74.0443 18.7814 73.9595 19.0084 73.8403 19.3535C73.6223 19.9848 73.3511 20.8391 73.2506 21.708C73.152 22.5596 73.1964 23.598 73.8006 24.4592C74.4358 25.3646 75.5124 25.8326 76.9406 25.8949L77.0277 23.8968ZM75.3292 17.4383C75.0449 17.3928 74.8104 17.4675 74.6687 17.532C74.5247 17.5975 74.4109 17.6818 74.3308 17.7492C74.1713 17.8834 74.0296 18.0501 73.9109 18.2053C73.667 18.5242 73.3979 18.9582 73.1224 19.4483C72.566 20.4384 71.9165 21.7787 71.3004 23.1901C70.6834 24.6033 70.0898 26.1107 69.6494 27.4387C69.2248 28.7188 68.8933 29.9717 68.8987 30.8068L70.8986 30.794C70.8957 30.3317 71.1151 29.3726 71.5477 28.0683C71.9643 26.8121 72.534 25.363 73.1333 23.9903C73.7334 22.6157 74.3532 21.3405 74.8659 20.4282C75.1251 19.9671 75.3405 19.6283 75.4995 19.4203C75.5822 19.3122 75.6215 19.277 75.6187 19.2793C75.617 19.2808 75.5754 19.3167 75.497 19.3524C75.4209 19.387 75.2456 19.4504 75.0132 19.4132L75.3292 17.4383ZM68.9123 30.9648C68.8415 30.54 69.0802 30.2375 69.2591 30.1082C69.4164 29.9947 69.6453 29.9162 69.9118 29.9695L69.5196 31.9307C69.8692 32.0006 70.198 31.8972 70.4301 31.7296C70.6839 31.5463 70.9725 31.1606 70.8851 30.636L68.9123 30.9648ZM69.8312 29.9568C69.4932 29.9175 68.737 29.8108 68.0613 29.5754C67.7218 29.4571 67.4578 29.3248 67.2854 29.192C67.2028 29.1283 67.1575 29.0769 67.1342 29.043C67.1134 29.0128 67.1109 28.9981 67.1101 28.9934L65.136 29.3142C65.2445 29.9815 65.6517 30.458 66.0647 30.7762C66.4744 31.0919 66.9609 31.31 67.4033 31.4641C68.291 31.7733 69.223 31.8995 69.6002 31.9434L69.8312 29.9568ZM83.3544 16.8623L83.2227 17.8536L84.5662 18.0321L84.3405 16.6957L83.3544 16.8623ZM81.4251 11.7893L81.5843 10.8021L80.2831 10.5922L80.4314 11.9018L81.4251 11.7893ZM76.9675 29.1538L77.9529 28.983L77.9512 28.9738L76.9675 29.1538ZM79.4125 17.1284L78.4424 17.3709L78.4443 17.3788L78.4464 17.3866L79.4125 17.1284ZM83.1881 18.8915L84.1875 18.9276L84.1876 18.9227L83.1881 18.8915ZM80.6101 29.5031L79.612 29.5652L79.7606 31.9534L81.3555 30.1696L80.6101 29.5031ZM83.6538 23.8313L84.5776 24.2144L84.606 24.1458L84.624 24.0739L83.6538 23.8313ZM83.9865 23.9644L84.9414 24.2612L84.9448 24.2502L84.948 24.2391L83.9865 23.9644ZM80.9926 30.9002L81.4022 31.8125L81.4135 31.8074L81.4247 31.802L80.9926 30.9002ZM83.4861 15.871C82.3587 15.7212 81.9165 15.4713 81.7616 15.3246C81.6846 15.2517 81.6307 15.1735 81.6709 14.8902C81.721 14.5358 81.8766 14.1538 82.0837 13.5727C82.2571 13.0863 82.4982 12.3793 82.4187 11.6768L80.4314 11.9018C80.4517 12.0809 80.3893 12.3698 80.1998 12.9011C80.0442 13.3377 79.7777 13.9952 79.6906 14.6097C79.5935 15.2952 79.6873 16.1152 80.3868 16.7772C81.0084 17.3655 81.9717 17.6874 83.2227 17.8536L83.4861 15.871ZM81.2658 12.7766C82.5405 12.9822 83.0402 13.2203 83.2064 13.3576C83.2562 13.3988 83.2313 13.3936 83.2199 13.3466C83.2136 13.3205 83.2288 13.3459 83.1972 13.472C83.1647 13.602 83.1026 13.7653 83.0016 14.0007C82.9107 14.2129 82.7796 14.5026 82.6694 14.7889C82.4431 15.3769 82.2202 16.1512 82.3684 17.0288L84.3405 16.6957C84.2808 16.3425 84.3573 15.9713 84.5359 15.5073C84.6282 15.2676 84.7258 15.0547 84.8399 14.7887C84.9439 14.5459 85.0629 14.2554 85.1375 13.9571C85.213 13.655 85.2612 13.2775 85.1636 12.8751C85.0609 12.4518 84.8205 12.0968 84.4802 11.8157C83.8662 11.3085 82.8877 11.0123 81.5843 10.8021L81.2658 12.7766ZM77.9512 28.9738C77.8755 28.5602 77.9523 27.7935 78.201 26.693C78.4397 25.6365 78.7979 24.4269 79.1666 23.1976C79.5299 21.986 79.9057 20.7484 80.1556 19.694C80.2808 19.1655 80.3806 18.6577 80.4304 18.2037C80.478 17.7701 80.4915 17.2928 80.3786 16.8702L78.4464 17.3866C78.4624 17.4464 78.4817 17.6271 78.4423 17.9857C78.4053 18.3239 78.3257 18.7424 78.2094 19.2329C77.9764 20.2165 77.6214 21.3875 77.2509 22.623C76.8856 23.8408 76.5068 25.1168 76.2502 26.2521C76.0035 27.3435 75.8267 28.4749 75.9838 29.3338L77.9512 28.9738ZM80.3827 16.8859C80.549 17.5513 80.0251 17.918 79.9952 17.9393C79.8841 18.0185 79.7838 18.0542 79.7609 18.0624C79.6944 18.0864 79.6447 18.0953 79.6442 18.0954C79.6279 18.0986 79.6338 18.0966 79.6724 18.0928C79.7419 18.0858 79.8612 18.0782 80.0164 18.0764C80.329 18.0727 80.7375 18.0933 81.1307 18.1687C81.5395 18.2471 81.8403 18.3676 82.015 18.5017C82.1447 18.6012 82.194 18.6889 82.1886 18.8602L84.1876 18.9227C84.2155 18.0296 83.8074 17.3563 83.2328 16.9152C82.7032 16.5087 82.0528 16.3091 81.5073 16.2045C80.9462 16.0969 80.3973 16.0718 79.9932 16.0765C79.79 16.0789 79.611 16.0889 79.473 16.1027C79.4078 16.1092 79.3326 16.1185 79.2616 16.1323C79.2337 16.1377 79.1634 16.1519 79.0833 16.1807C79.0535 16.1914 78.9482 16.2295 78.8339 16.311C78.8008 16.3346 78.2755 16.7035 78.4424 17.3709L80.3827 16.8859ZM82.1888 18.8553C82.187 18.905 82.1657 19.0478 82.0894 19.3245C82.0178 19.5843 81.9146 19.9037 81.7852 20.2822C81.5369 21.0089 81.1756 21.9964 80.8439 22.9968C80.1783 25.0039 79.4822 27.4794 79.612 29.5652L81.6081 29.441C81.5051 27.7844 82.073 25.6443 82.7422 23.6263C83.0778 22.6142 83.4017 21.7368 83.6777 20.9291C83.8106 20.5404 83.9295 20.1753 84.0175 19.8561C84.1009 19.5537 84.1768 19.223 84.1875 18.9276L82.1888 18.8553ZM81.3555 30.1696C82.0896 29.3486 82.8318 27.9858 83.3976 26.8335C83.9792 25.649 84.4336 24.5615 84.5776 24.2144L82.7301 23.4483C82.5912 23.7832 82.1559 24.8246 81.6023 25.952C81.0329 27.1117 80.3946 28.2437 79.8646 28.8365L81.3555 30.1696ZM84.624 24.0739C84.5589 24.3343 84.3882 24.5218 84.2082 24.6247C84.0472 24.7167 83.9014 24.7316 83.8202 24.7316V22.7316C83.5428 22.7316 82.865 22.8637 82.6837 23.5888L84.624 24.0739ZM83.8202 24.7316C83.2152 24.7316 82.8917 24.1562 83.0249 23.6897L84.948 24.2391C85.1478 23.5398 84.658 22.7316 83.8202 22.7316V24.7316ZM83.0315 23.6676C82.8465 24.263 82.3055 25.8782 81.7145 27.3853C81.4182 28.1409 81.1179 28.8472 80.8504 29.3782C80.7156 29.6457 80.6009 29.845 80.5104 29.9768C80.3864 30.1574 80.3987 30.0759 80.5605 29.9984L81.4247 31.802C81.7861 31.6289 82.0297 31.2974 82.1591 31.1089C82.3221 30.8715 82.483 30.5827 82.6365 30.2782C82.9453 29.6652 83.2719 28.8922 83.5765 28.1155C84.1872 26.558 84.7439 24.8967 84.9414 24.2612L83.0315 23.6676ZM80.583 29.9879C80.6445 29.9603 80.5407 30.01 80.1725 29.9646C79.8584 29.9259 79.477 29.8334 79.1042 29.6948C78.7274 29.5546 78.4055 29.3843 78.1854 29.2138C77.9454 29.0279 77.9448 28.937 77.9528 28.983L75.9822 29.3246C76.0983 29.9943 76.5531 30.4793 76.9607 30.795C77.3882 31.1261 77.9063 31.383 78.4068 31.5692C78.9115 31.757 79.4448 31.8901 79.928 31.9496C80.3572 32.0025 80.9332 32.023 81.4022 31.8125L80.583 29.9879ZM86.9138 30.8836L87.4842 31.7049L87.4873 31.7028L86.9138 30.8836ZM83.0052 29.4532L83.8805 28.9697L83.8783 28.9658L83.0052 29.4532ZM86.0323 18.4257L85.2472 17.8063L85.2438 17.8106L86.0323 18.4257ZM91.2882 17.4943L90.7795 18.3552L90.7943 18.364L90.8093 18.3722L91.2882 17.4943ZM91.4379 17.9767L92.3763 18.3224L92.3809 18.3095L91.4379 17.9767ZM90.7227 18.1264L90.9858 17.1615L90.9733 17.1583L90.7227 18.1264ZM86.2485 29.9355L85.2524 30.0232L85.5774 33.7163L87.1536 30.3607L86.2485 29.9355ZM92.1864 17.2947L93.0915 17.7199L93.1107 17.679L93.1261 17.6365L92.1864 17.2947ZM92.7519 29.7027L91.7523 29.6745L91.6834 32.1173L93.445 30.4235L92.7519 29.7027ZM95.9786 23.8313L95.0842 23.3841L95.0647 23.4231L95.0486 23.4637L95.9786 23.8313ZM96.3112 23.9644L95.3921 23.5705L95.3717 23.6181L95.3563 23.6676L96.3112 23.9644ZM89.2757 28.7712L90.2661 28.6333L90.2647 28.6236L89.2757 28.7712ZM90.8724 21.3864L91.8302 21.6737L89.9395 21.0263L90.8724 21.3864ZM86.3434 30.0622C86.4536 29.9857 86.5242 29.9884 86.4672 29.996C86.4253 30.0015 86.3429 30.0054 86.2163 29.9953C85.964 29.9753 85.6305 29.9076 85.2769 29.7918C84.9244 29.6764 84.5887 29.5252 84.3231 29.3584C84.0422 29.182 83.918 29.0376 83.8805 28.9697L82.1298 29.9366C82.4 30.426 82.8434 30.7909 83.2595 31.0522C83.6909 31.323 84.1816 31.5377 84.6545 31.6925C85.1264 31.847 85.6172 31.954 86.0578 31.9891C86.2775 32.0065 86.5087 32.0081 86.7312 31.9784C86.9385 31.9508 87.2244 31.8854 87.4842 31.7049L86.3434 30.0622ZM83.8783 28.9658C83.8911 28.9886 83.8452 28.9035 83.8295 28.6112C83.8153 28.3456 83.8297 27.995 83.8778 27.5685C83.9736 26.7177 84.1926 25.6571 84.4975 24.5475C85.1195 22.2838 86.0347 20.0484 86.8207 19.0408L85.2438 17.8106C84.2002 19.1483 83.2027 21.7114 82.569 24.0175C82.246 25.1928 82.0013 26.3599 81.8903 27.3445C81.835 27.8356 81.8102 28.3046 81.8324 28.7185C81.8532 29.1057 81.9196 29.5601 82.132 29.9405L83.8783 28.9658ZM86.8174 19.0452C87.2814 18.457 88.0754 18.1686 88.9799 18.1163C89.4178 18.091 89.839 18.125 90.1826 18.1867C90.3537 18.2175 90.4973 18.2536 90.6075 18.2887C90.6623 18.3061 90.7051 18.3221 90.7364 18.3353C90.7689 18.349 90.7816 18.3565 90.7795 18.3552L91.7969 16.6334C91.4635 16.4364 90.997 16.301 90.5361 16.2182C90.0491 16.1308 89.4703 16.0847 88.8645 16.1197C87.6816 16.188 86.2136 16.5815 85.2472 17.8063L86.8174 19.0452ZM90.8093 18.3722C90.8569 18.3982 90.6372 18.2993 90.5316 18.0151C90.4329 17.7491 90.5237 17.5621 90.4949 17.6438L92.3809 18.3095C92.4518 18.1085 92.5593 17.7302 92.4065 17.3187C92.2469 16.8889 91.9024 16.6903 91.767 16.6164L90.8093 18.3722ZM90.4995 17.631C90.5099 17.6027 90.5572 17.4886 90.6878 17.3796C90.83 17.2609 90.984 17.2203 91.0865 17.2113C91.1682 17.2041 91.2108 17.2175 91.1725 17.2097C91.1361 17.2023 91.0881 17.1895 90.9858 17.1616L90.4596 19.0911C90.5402 19.1131 90.6585 19.1461 90.7724 19.1693C90.8843 19.1922 91.061 19.2212 91.2612 19.2036C91.4822 19.1842 91.7391 19.1072 91.9691 18.9153C92.1876 18.733 92.3076 18.5086 92.3762 18.3224L90.4995 17.631ZM90.9733 17.1583C90.2414 16.9688 89.6492 17.3587 89.3061 17.6786C88.9421 18.018 88.6215 18.488 88.3414 18.9837C87.7732 19.9892 87.231 21.3567 86.7688 22.757C86.3033 24.1673 85.9035 25.6586 85.6305 26.9365C85.3682 28.1644 85.1916 29.3329 85.2524 30.0232L87.2447 29.8479C87.2139 29.4986 87.318 28.6108 87.5864 27.3543C87.8441 26.1477 88.225 24.7262 88.668 23.3838C89.1144 22.0314 89.6086 20.8063 90.0826 19.9677C90.3235 19.5413 90.5254 19.2763 90.6701 19.1414C90.8356 18.9871 90.7382 19.1634 90.472 19.0944L90.9733 17.1583ZM87.1536 30.3607L93.0915 17.7199L91.2812 16.8696L85.3434 29.5103L87.1536 30.3607ZM93.1261 17.6365C93.0449 17.8598 92.8958 17.9901 92.7966 18.0531C92.7048 18.1113 92.6343 18.1272 92.6251 18.1293C92.609 18.133 92.6558 18.1222 92.7924 18.1297C93.0507 18.144 93.4236 18.2108 93.8074 18.3206C94.1977 18.4323 94.5175 18.565 94.696 18.6742C94.7943 18.7343 94.7735 18.7414 94.7241 18.6723C94.6534 18.5736 94.5126 18.2736 94.6765 17.9293L96.4823 18.7892C96.7294 18.2702 96.5511 17.7888 96.3505 17.5085C96.1712 17.2578 95.9279 17.0831 95.7393 16.9678C95.344 16.7261 94.8321 16.5335 94.3575 16.3977C93.8765 16.2602 93.3512 16.1575 92.9026 16.1328C92.6857 16.1208 92.427 16.1232 92.1811 16.1792C92.0013 16.2201 91.4573 16.3733 91.2466 16.953L93.1261 17.6365ZM94.6765 17.9293C94.6027 18.0844 94.5088 18.3543 94.4155 18.6368C94.3136 18.9455 94.1886 19.3443 94.0494 19.805C93.7707 20.727 93.431 21.9119 93.0999 23.1485C92.769 24.3841 92.4444 25.6796 92.1976 26.8206C91.956 27.9373 91.7718 28.9806 91.7523 29.6745L93.7515 29.7308C93.7652 29.2438 93.9095 28.366 94.1523 27.2435C94.3899 26.1454 94.7057 24.8837 95.0318 23.6659C95.3576 22.4492 95.6915 21.2847 95.9639 20.3835C96.1002 19.9325 96.2199 19.551 96.3147 19.2638C96.3622 19.1199 96.4021 19.0037 96.4338 18.9163C96.469 18.819 96.4841 18.7854 96.4823 18.7892L94.6765 17.9293ZM93.445 30.4235C93.8614 30.023 94.2603 29.459 94.6146 28.8847C94.9772 28.297 95.3284 27.6402 95.6407 27.0134C96.2651 25.7604 96.7589 24.5776 96.9085 24.199L95.0486 23.4637C94.9156 23.8003 94.4446 24.9294 93.8507 26.1214C93.5538 26.7171 93.2324 27.3161 92.9126 27.8345C92.5845 28.3662 92.291 28.7586 92.0588 28.9818L93.445 30.4235ZM96.873 24.2786C96.7134 24.5977 96.4017 24.7316 96.1449 24.7316V22.7316C95.7551 22.7316 95.3103 22.9319 95.0842 23.3841L96.873 24.2786ZM96.1449 24.7316C95.8733 24.7316 95.6399 24.6005 95.495 24.4104C95.3368 24.2027 95.2584 23.8825 95.3921 23.5705L97.2304 24.3583C97.414 23.9299 97.3106 23.4932 97.0859 23.1983C96.8745 22.9208 96.533 22.7316 96.1449 22.7316V24.7316ZM95.3563 23.6676C95.168 24.2735 94.6217 25.9696 94.035 27.519C93.7402 28.2975 93.4451 29.0128 93.1875 29.529C93.0566 29.7911 92.9524 29.9674 92.8794 30.0677C92.8423 30.1187 92.8344 30.1206 92.8575 30.1004C92.8661 30.0928 92.9955 29.9749 93.2322 29.9426L93.5024 31.9243C93.8305 31.8796 94.0599 31.7059 94.176 31.6042C94.3065 31.4898 94.4132 31.3591 94.4969 31.244C94.6657 31.012 94.8274 30.7218 94.977 30.4221C95.2802 29.8145 95.6035 29.0245 95.9054 28.2272C96.5122 26.6247 97.072 24.8861 97.2662 24.2612L95.3563 23.6676ZM93.2322 29.9426C92.7534 30.0079 91.9793 29.8648 91.282 29.5223C90.9454 29.357 90.6764 29.1687 90.4961 28.987C90.3114 28.8009 90.2722 28.677 90.2661 28.6333L88.2852 28.9091C88.3706 29.5224 88.7056 30.0222 89.0766 30.3959C89.4519 30.7741 89.92 31.0816 90.4004 31.3175C91.3372 31.7776 92.5175 32.0586 93.5024 31.9243L93.2322 29.9426ZM90.2647 28.6236C90.2463 28.5004 90.2513 28.2011 90.3254 27.6878C90.3954 27.2029 90.514 26.6098 90.6677 25.9472C90.9747 24.6235 91.4087 23.0789 91.8302 21.6737L89.9146 21.099C89.4878 22.5214 89.0403 24.112 88.7194 25.4953C88.5592 26.1861 88.4272 26.8395 88.3459 27.4019C88.2688 27.9359 88.2218 28.4849 88.2866 28.9188L90.2647 28.6236ZM89.9395 21.0263C89.2084 22.9203 88.3047 25.2292 87.5434 27.0913C87.1621 28.0237 86.8201 28.8353 86.555 29.4242C86.4216 29.7204 86.3136 29.9472 86.2333 30.1006C86.1925 30.1787 86.1669 30.2222 86.155 30.2407C86.149 30.2502 86.1545 30.2405 86.1706 30.2205C86.1773 30.2121 86.2351 30.138 86.3404 30.0643L87.4873 31.7028C87.6133 31.6146 87.6955 31.5157 87.73 31.4727C87.7739 31.4181 87.8106 31.364 87.839 31.3197C87.8961 31.2306 87.9525 31.129 88.0054 31.0277C88.1128 30.8225 88.2397 30.5539 88.3787 30.2452C88.6583 29.6241 89.0107 28.787 89.3946 27.8482C90.1634 25.9679 91.0727 23.6446 91.8053 21.7464L89.9395 21.0263Z" fill="black" mask="url(#path-1-inside-1_307_1427)"/>
</g>
<path d="M5 33.6259H27.4033" stroke="#333333" stroke-width="0.420324" stroke-miterlimit="10" stroke-linecap="round" stroke-linejoin="round"/>
<path d="M36.9856 33.6259H96.036" stroke="#3C4242" stroke-width="0.420324" stroke-miterlimit="10" stroke-linecap="round" stroke-linejoin="round"/>
<path d="M44.9505 41.2617C44.7869 41.2617 44.5979 41.1972 44.3821 41.0689C44.167 40.9398 43.9381 40.7693 43.6969 40.5565C43.4557 40.3438 43.2183 40.1126 42.9841 39.8621C42.7506 39.6125 42.5347 39.3636 42.3381 39.1155C42.1414 38.8682 41.9763 38.6477 41.8426 38.4549L40.7626 40.7862C40.7104 40.8999 40.629 40.9805 40.5176 41.0274C40.4062 41.0743 40.2856 41.1027 40.1558 41.1127C40.026 41.1227 39.8977 41.1273 39.7717 41.1273C39.8677 40.989 39.9668 40.83 40.0667 40.6518C40.1673 40.4736 40.2856 40.2585 40.4231 40.0058C40.5606 39.7531 40.7219 39.4466 40.9078 39.0848C41.0937 38.7238 41.3141 38.2913 41.5707 37.789C41.8265 37.2866 42.1291 36.6967 42.4786 36.0184C42.5009 35.9785 42.5309 35.9232 42.5677 35.8517C42.6046 35.7803 42.6238 35.7142 42.6238 35.6551C42.6238 35.6005 42.6054 35.5575 42.5677 35.5253C42.5309 35.493 42.4602 35.4769 42.3565 35.4769C42.1783 35.4769 42.0055 35.5253 41.8388 35.6213C41.6721 35.7173 41.5231 35.8402 41.3933 35.9892C41.2634 36.1375 41.1613 36.2911 41.0868 36.4493C41.0123 36.6076 40.9754 36.7489 40.9754 36.8726C40.9754 36.967 40.9938 37.0508 41.0307 37.1253C40.7857 37.1253 40.6128 37.0846 40.513 37.0032C40.4124 36.9217 40.3624 36.8211 40.3624 36.702C40.3624 36.5338 40.4362 36.3656 40.5852 36.1974C40.7334 36.0292 40.9247 35.874 41.159 35.7334C41.3933 35.5921 41.6383 35.4799 41.8941 35.3954C42.1499 35.3117 42.3819 35.2695 42.59 35.2695C42.7905 35.2695 42.9257 35.3063 42.9964 35.3809C43.067 35.4554 43.1024 35.5368 43.1024 35.6259C43.1024 35.6804 43.0931 35.735 43.0747 35.7895C43.0563 35.844 43.0355 35.8963 43.0133 35.9454L42.0777 37.9649C42.1814 37.8658 42.3173 37.7744 42.484 37.6899C42.6507 37.6061 42.835 37.5094 43.0355 37.4003C43.3697 37.2221 43.7276 37.0139 44.1102 36.7766C44.4927 36.5392 44.8583 36.2888 45.207 36.0268C45.5558 35.7641 45.8454 35.5122 46.0758 35.2695C46.1127 35.2994 46.1388 35.3509 46.1542 35.4254C46.1688 35.4999 46.1764 35.5568 46.1764 35.5959C46.1764 35.7496 46.082 35.9178 45.8922 36.1006C45.7025 36.2834 45.4559 36.4731 45.1517 36.6682C44.8476 36.8641 44.5134 37.0569 44.1493 37.2474C43.7852 37.4379 43.4273 37.6177 43.0747 37.7859C42.7221 37.9541 42.4041 38.1 42.1222 38.2237C42.345 38.4764 42.5624 38.7161 42.7736 38.9442C42.9848 39.1716 43.2153 39.3944 43.4642 39.6125C43.713 39.8307 44.0041 40.0534 44.3383 40.2808C44.6724 40.5081 45.0772 40.7532 45.5519 41.0159C45.4997 41.0804 45.4183 41.1372 45.3069 41.1864C45.1955 41.2371 45.0765 41.2617 44.9505 41.2617Z" fill="#3C4242"/>
<path d="M50.9091 40.9796C50.4559 40.9796 50.1203 40.8882 49.9013 40.7046C49.6824 40.5218 49.5726 40.3013 49.5726 40.044C49.253 40.3259 48.8859 40.5464 48.4703 40.7046C48.0547 40.8628 47.6346 40.9419 47.2121 40.9419C46.7589 40.9419 46.4194 40.859 46.1928 40.6931C45.9662 40.5272 45.8533 40.3228 45.8533 40.0809C45.8533 39.8581 45.937 39.6231 46.1037 39.3757C46.2711 39.1284 46.4939 38.8956 46.772 38.6775C47.05 38.4601 47.3565 38.2827 47.6907 38.1467C48.0248 38.0107 48.3551 37.9424 48.6823 37.9424C48.8528 37.9424 49.0111 37.9723 49.1555 38.0315C49.3007 38.0906 49.3729 38.212 49.3729 38.3956C49.3729 38.5838 49.2891 38.7604 49.1225 38.9264C48.9558 39.0923 48.7361 39.2398 48.4657 39.368C48.1945 39.4971 47.8973 39.6016 47.5747 39.6837C47.252 39.7659 46.9302 39.8159 46.6114 39.8358C46.5968 39.8858 46.5853 39.9326 46.5776 39.9772C46.5699 40.0217 46.5661 40.064 46.5661 40.1031C46.5661 40.2022 46.5922 40.2998 46.6445 40.3966C46.6959 40.4934 46.785 40.5725 46.9118 40.6339C47.0377 40.6961 47.2159 40.7269 47.4464 40.7269C47.8397 40.7269 48.2299 40.6339 48.6163 40.4488C49.0019 40.2629 49.3398 40.034 49.6294 39.7621C49.6962 39.5593 49.8153 39.3565 49.9858 39.153C50.1564 38.9502 50.363 38.7658 50.6042 38.5999C50.8454 38.434 51.1073 38.3003 51.3892 38.1989C51.6711 38.0975 51.9576 38.0468 52.2472 38.0468C52.4178 38.0468 52.576 38.0768 52.7204 38.136C52.8648 38.1951 52.9378 38.3165 52.9378 38.5C52.9378 38.7528 52.8095 38.974 52.5537 39.1645C52.2979 39.355 51.9692 39.5071 51.5682 39.6215C51.1672 39.7352 50.7555 39.8074 50.3323 39.8366C50.3177 39.8865 50.3061 39.9334 50.2985 39.9779C50.2908 40.0225 50.2869 40.0647 50.2869 40.1039C50.2869 40.203 50.3108 40.3044 50.3591 40.4081C50.4075 40.5118 50.4928 40.5971 50.6149 40.6639C50.7378 40.7307 50.9137 40.7637 51.1442 40.7637C51.4637 40.7637 51.7825 40.7008 52.102 40.5748C52.4216 40.4488 52.7181 40.2829 52.9931 40.077C53.2681 39.8719 53.4978 39.6499 53.6836 39.4126L53.8173 39.4794C53.6168 39.7767 53.3587 40.0379 53.043 40.2629C52.7273 40.488 52.3863 40.6639 52.0183 40.7899C51.6496 40.9166 51.2801 40.9796 50.9091 40.9796ZM46.666 39.6945C46.8664 39.6499 47.093 39.5847 47.345 39.4979C47.5977 39.4111 47.8404 39.3089 48.0747 39.1898C48.309 39.0708 48.5018 38.9402 48.6539 38.7965C48.806 38.6529 48.882 38.5024 48.882 38.3434C48.882 38.2888 48.8674 38.2466 48.8375 38.2174C48.8075 38.1874 48.7445 38.1728 48.6485 38.1728C48.4703 38.1728 48.2806 38.2189 48.0801 38.3103C47.8796 38.4017 47.6868 38.5216 47.5009 38.6706C47.315 38.8188 47.1483 38.9824 46.9993 39.1606C46.8511 39.3381 46.7397 39.5163 46.666 39.6945ZM50.386 39.6945C50.5865 39.6499 50.8054 39.5908 51.0436 39.5163C51.2809 39.4418 51.5075 39.3542 51.7234 39.2528C51.9384 39.1514 52.1166 39.0354 52.258 38.9041C52.3985 38.7727 52.4692 38.6283 52.4692 38.4701C52.4692 38.4156 52.4508 38.3695 52.4131 38.3326C52.3763 38.2957 52.3094 38.2773 52.2127 38.2773C51.9753 38.2773 51.7356 38.3464 51.4945 38.4855C51.2533 38.6237 51.0343 38.8012 50.8369 39.0162C50.6403 39.2305 50.4897 39.4571 50.386 39.6945Z" fill="#3C4242"/>
<path d="M52.7478 42.6948C52.6886 42.6948 52.631 42.6741 52.5749 42.6319C52.5189 42.5896 52.4766 42.5451 52.4466 42.4982C52.4167 42.4513 52.4021 42.4229 52.4021 42.4129C52.5058 42.1702 52.608 41.9536 52.7086 41.7631C52.8092 41.5726 52.9091 41.3767 53.0097 41.1762C53.1095 40.9758 53.2086 40.7407 53.3047 40.4711C53.4014 40.2015 53.5013 39.8658 53.6058 39.4648C53.7095 39.0639 53.8139 38.5661 53.9176 37.9724C53.9253 37.9278 53.9399 37.8955 53.9622 37.8756C53.9845 37.8556 54.0398 37.8456 54.1289 37.8456C54.3217 37.8456 54.4592 37.8817 54.5414 37.9532C54.6228 38.0246 54.6635 38.1029 54.6635 38.1867C54.6635 38.2558 54.6412 38.3795 54.5967 38.5577C54.5521 38.7359 54.4891 38.9463 54.4077 39.1891C54.5337 39.0255 54.6919 38.8596 54.8809 38.6913C55.0698 38.5231 55.2872 38.3818 55.5322 38.2681C55.7773 38.1544 56.0446 38.0976 56.3342 38.0976C56.6606 38.0976 56.9302 38.1759 57.1415 38.3311C57.3527 38.487 57.4587 38.6913 57.4587 38.944C57.4587 39.1368 57.3934 39.3412 57.2636 39.5562C57.1338 39.7713 56.9518 39.9749 56.7182 40.1654C56.4847 40.3559 56.2074 40.511 55.8887 40.6293C55.5691 40.7484 55.2165 40.8075 54.8309 40.8075C54.6374 40.8075 54.4822 40.7929 54.3631 40.763C54.2441 40.733 54.1849 40.7038 54.1849 40.6739C54.1849 40.6539 54.2126 40.6432 54.2687 40.6401C54.3247 40.6378 54.3893 40.6362 54.4638 40.6362C54.761 40.6362 55.0445 40.5879 55.3156 40.4911C55.5868 40.3943 55.8295 40.2668 56.0454 40.1085C56.2604 39.9503 56.4294 39.7744 56.5523 39.5816C56.6745 39.3888 56.7359 39.1983 56.7359 39.0101C56.7359 38.8519 56.686 38.7167 56.5854 38.6053C56.4855 38.4939 56.3234 38.4386 56.1007 38.4386C55.9079 38.4386 55.7166 38.4793 55.5269 38.5607C55.3371 38.6422 55.1589 38.7466 54.9922 38.8726C54.8248 38.9986 54.6765 39.1299 54.5467 39.2659C54.4169 39.4019 54.3186 39.5248 54.2518 39.6331C54.1181 40.0041 53.9845 40.362 53.8508 40.7061C53.7171 41.0503 53.5889 41.3621 53.4667 41.6417C53.3438 41.9213 53.2332 42.1502 53.1326 42.3284C53.0327 42.5067 52.949 42.6157 52.8822 42.6549C52.8438 42.6826 52.7992 42.6948 52.7478 42.6948Z" fill="#3C4242"/>
<path d="M61.502 40.8083C61.2124 40.8083 60.9966 40.7476 60.856 40.6263C60.7147 40.5049 60.6448 40.3574 60.6448 40.1846C60.6448 40.0709 60.6763 39.9273 60.7393 39.7537C60.8022 39.5808 60.886 39.3988 60.9897 39.2083C61.0934 39.0178 61.214 38.838 61.3515 38.6698C61.489 38.5016 61.6357 38.3641 61.7916 38.2573C61.9475 38.1513 62.0996 38.0976 62.2486 38.0976C62.3155 38.0976 62.3731 38.1114 62.4215 38.1383C62.4699 38.1652 62.4937 38.2066 62.4937 38.2604C62.4937 38.3196 62.4361 38.4163 62.3208 38.55C62.2056 38.6836 62.0704 38.8373 61.9145 39.0101C61.7586 39.1837 61.6234 39.365 61.5082 39.5555C61.3929 39.746 61.3353 39.928 61.3353 40.1016C61.3353 40.2798 61.3799 40.3989 61.469 40.458C61.5581 40.5172 61.6956 40.5471 61.8815 40.5471C62.1342 40.5471 62.403 40.4634 62.6888 40.2944C62.9745 40.1262 63.2772 39.832 63.5967 39.4111L63.6966 39.4856C63.4815 39.9111 63.1712 40.2383 62.7664 40.4657C62.3608 40.6946 61.9398 40.8083 61.502 40.8083ZM62.8378 37.4078C62.7187 37.4078 62.6135 37.3878 62.5206 37.3486C62.4276 37.3087 62.3815 37.2472 62.3815 37.1627C62.3815 37.059 62.4722 36.9684 62.6542 36.8916C62.8363 36.8148 63.016 36.7764 63.1942 36.7764C63.3056 36.7764 63.3947 36.794 63.4615 36.8286C63.5284 36.8632 63.5614 36.9231 63.5614 37.0068C63.5614 37.1005 63.4853 37.1912 63.3332 37.278C63.1819 37.3648 63.0168 37.4078 62.8378 37.4078Z" fill="#3C4242"/>
<path d="M64.33 40.9573C64.0105 40.9573 63.7654 40.8951 63.5949 40.7714C63.4244 40.6478 63.3391 40.4649 63.3391 40.2222C63.3391 40.0048 63.4006 39.736 63.5227 39.4164C63.6448 39.0969 63.7992 38.7697 63.9851 38.4325C63.9106 38.4225 63.8407 38.414 63.7739 38.4063C63.7071 38.3987 63.6441 38.3879 63.5849 38.3733V38.2396C63.6441 38.2443 63.7147 38.2496 63.7962 38.2542C63.8776 38.2589 63.9705 38.2642 64.0742 38.2688C64.2301 38.0015 64.3976 37.7427 64.575 37.493C64.7532 37.2434 64.9299 37.0206 65.1043 36.8247C65.2787 36.6296 65.4461 36.4729 65.6059 36.357C65.7656 36.241 65.9008 36.1826 66.0122 36.1826C66.0714 36.1826 66.1251 36.1964 66.1735 36.2233C66.2219 36.2502 66.2457 36.2917 66.2457 36.3454C66.2457 36.4299 66.1682 36.5667 66.0122 36.7579C65.8563 36.9484 65.6635 37.175 65.433 37.4369C65.2026 37.6996 64.9798 37.9839 64.7648 38.2911C64.8316 38.2911 64.9 38.2911 64.9706 38.2911C65.0413 38.2911 65.1097 38.2911 65.1765 38.2911C65.4215 38.2911 65.6796 38.2888 65.9508 38.2834C66.2219 38.2788 66.4946 38.2658 66.7696 38.2466V38.3802C66.361 38.4102 65.9953 38.4325 65.6727 38.447C65.3501 38.4616 65.062 38.4693 64.8093 38.4693C64.7794 38.4693 64.7517 38.4693 64.7256 38.4693C64.6995 38.4693 64.6718 38.4693 64.6419 38.4693C64.4713 38.732 64.3262 39.0016 64.2079 39.2789C64.0888 39.5562 64.0297 39.8258 64.0297 40.0885C64.0297 40.3013 64.0781 40.4534 64.1741 40.5448C64.2701 40.6362 64.4299 40.6823 64.6534 40.6823C65.0398 40.6823 65.4185 40.5686 65.7895 40.3405C66.1605 40.1131 66.4869 39.8036 66.7696 39.4126L66.914 39.4871C66.7358 39.7644 66.5107 40.014 66.2404 40.2368C65.9692 40.4596 65.6704 40.6355 65.3439 40.7637C65.0167 40.8928 64.6795 40.9573 64.33 40.9573Z" fill="#3C4242"/>
<path d="M70.6454 41.0311C70.289 41.0311 69.9917 40.952 69.7544 40.7937C69.517 40.6355 69.3979 40.3981 69.3979 40.0809C69.3979 39.8336 69.4702 39.5924 69.6153 39.3565C69.7597 39.1215 69.951 38.9103 70.1891 38.7221C70.4265 38.5339 70.69 38.3841 70.9795 38.2727C71.2691 38.1613 71.5549 38.106 71.8375 38.106C72.1417 38.106 72.3499 38.1652 72.4613 38.2842C72.5727 38.4033 72.628 38.527 72.628 38.6552C72.628 38.7989 72.578 38.9249 72.4774 39.0339C72.3775 39.143 72.2416 39.1975 72.0711 39.1975C71.9451 39.1975 71.8375 39.1607 71.7477 39.0862C71.8591 39.047 71.9558 38.9663 72.0373 38.845C72.1187 38.7236 72.1602 38.6084 72.1602 38.4993C72.1602 38.4402 72.1433 38.3941 72.1102 38.3618C72.0764 38.3295 72.0119 38.3134 71.9151 38.3134C71.7146 38.3134 71.5088 38.3726 71.2968 38.4916C71.0855 38.6107 70.8881 38.7635 70.7069 38.9517C70.5248 39.1399 70.3766 39.3381 70.2613 39.5455C70.1461 39.7537 70.0885 39.9488 70.0885 40.1324C70.0885 40.286 70.1446 40.4266 70.256 40.5556C70.3673 40.6839 70.5824 40.7484 70.902 40.7484C71.1992 40.7484 71.498 40.6939 71.7984 40.5848C72.0987 40.4757 72.3791 40.3198 72.6395 40.117C72.8991 39.9142 73.1073 39.6761 73.2632 39.4042L73.4076 39.4787C73.2371 39.7759 73.0028 40.0417 72.7063 40.2768C72.409 40.5118 72.0826 40.6962 71.7262 40.8298C71.369 40.9642 71.0087 41.0311 70.6454 41.0311Z" fill="#3C4242"/>
<path d="M73.9758 40.8383C73.6562 40.8383 73.4281 40.7653 73.2906 40.6193C73.1531 40.4734 73.0847 40.2914 73.0847 40.074C73.0847 39.8366 73.1515 39.5539 73.2852 39.2275C73.4189 38.901 73.5955 38.5569 73.8144 38.1951C74.0334 37.8341 74.273 37.4815 74.5326 37.1366C74.7923 36.7925 75.0519 36.4799 75.3123 36.1972C75.5719 35.9153 75.8116 35.6895 76.0305 35.5212C76.2494 35.353 76.4223 35.2685 76.5482 35.2685C76.6297 35.2685 76.6965 35.2993 76.7487 35.3615C76.8009 35.4237 76.8417 35.4974 76.8716 35.5842C76.9008 35.671 76.9162 35.7486 76.9162 35.8177C76.9162 35.9514 76.8662 36.1258 76.7656 36.3416C76.6658 36.5567 76.5244 36.7971 76.3424 37.0621C76.1603 37.3271 75.9453 37.5944 75.6964 37.864C75.4475 38.1337 75.1763 38.3925 74.8837 38.6399C74.5903 38.8872 74.2807 39.1 73.9535 39.2782C73.9089 39.4118 73.8736 39.5417 73.8475 39.6684C73.8214 39.7944 73.8083 39.915 73.8083 40.0287C73.8083 40.2215 73.849 40.3651 73.9304 40.4596C74.0119 40.5533 74.1348 40.6009 74.2984 40.6009C74.4989 40.6009 74.6978 40.5418 74.8944 40.4227C75.0911 40.3036 75.277 40.1539 75.4513 39.9733C75.6257 39.7928 75.7763 39.6062 75.9022 39.4126L76.0689 39.4718C75.7717 39.8927 75.449 40.2253 75.0995 40.4703C74.7516 40.7161 74.3767 40.8383 73.9758 40.8383ZM74.0541 39.0262C74.3137 38.8526 74.5664 38.6537 74.8115 38.4286C75.0565 38.2036 75.2847 37.9693 75.4967 37.7273C75.7087 37.4846 75.8961 37.2495 76.0589 37.0222C76.2218 36.7948 76.3485 36.5905 76.4376 36.41C76.5267 36.2295 76.5713 36.0897 76.5713 35.9906C76.5713 35.9414 76.5621 35.9091 76.5436 35.8938C76.5252 35.8792 76.5083 35.8715 76.4937 35.8715C76.4345 35.8715 76.3324 35.9345 76.1872 36.0605C76.0428 36.1864 75.8738 36.3562 75.6802 36.569C75.4874 36.7817 75.2908 37.0245 75.0903 37.2964C74.8898 37.5683 74.6986 37.8533 74.5165 38.1506C74.3337 38.4471 74.1801 38.7397 74.0541 39.0262Z" fill="#3C4242"/>
<path d="M76.2143 40.9643C75.9839 40.9643 75.7888 40.9136 75.6298 40.8122C75.47 40.7108 75.3901 40.5564 75.3901 40.3482C75.3901 40.17 75.4493 39.978 75.5683 39.7729C75.6866 39.5678 75.8503 39.3642 76.0584 39.1637C76.2666 38.9633 76.5024 38.7804 76.7659 38.6145C77.0293 38.4486 77.3074 38.3165 77.6016 38.2174C77.895 38.1183 78.1861 38.0692 78.4757 38.0692C78.7653 38.0692 79.0065 38.1198 79.1993 38.2212C79.3921 38.3226 79.4889 38.4578 79.4889 38.6261C79.4889 38.7497 79.439 38.8342 79.3384 38.8788C79.2377 38.9233 79.1064 38.9456 78.9428 38.9456C78.9574 38.9056 78.9704 38.8626 78.9819 38.8158C78.9935 38.7689 78.9988 38.7259 78.9988 38.686C78.9988 38.5723 78.9581 38.4747 78.8767 38.3925C78.7945 38.3111 78.6539 38.2704 78.4535 38.2704C78.2453 38.2704 78.0341 38.3188 77.8182 38.4148C77.6031 38.5116 77.395 38.6399 77.1945 38.8012C76.994 38.9625 76.8158 39.1369 76.6599 39.3251C76.5039 39.5132 76.3818 39.6991 76.2919 39.8819C76.2028 40.0648 76.1583 40.2284 76.1583 40.372C76.1583 40.5648 76.2581 40.6616 76.4594 40.6616C76.6299 40.6616 76.8158 40.6086 77.0163 40.5018C77.2168 40.3958 77.4226 40.2591 77.6346 40.0932C77.8459 39.9273 78.0487 39.7552 78.2415 39.577C78.4343 39.3988 78.6056 39.2352 78.7538 39.0869C78.783 39.057 78.8022 39.0424 78.8091 39.0424C78.8537 39.047 78.9113 39.057 78.9819 39.0723C79.0526 39.0869 79.1141 39.1069 79.1655 39.1315C79.2178 39.1561 79.2439 39.1883 79.2439 39.2283C79.2439 39.2728 79.2101 39.3335 79.1432 39.4103C79.0764 39.4871 79.0019 39.5747 78.9205 39.6738C78.8383 39.7729 78.7646 39.8735 78.6977 39.9749C78.6309 40.0763 78.5979 40.1715 78.5979 40.2606C78.5979 40.3351 78.6271 40.4081 78.687 40.4796C78.7461 40.5518 78.8429 40.5871 78.9766 40.5871C79.177 40.5871 79.4405 40.4895 79.767 40.2937C80.0934 40.0986 80.4245 39.8051 80.7586 39.4134L80.87 39.4879C80.7141 39.7552 80.5136 39.9903 80.2686 40.193C80.0235 40.3958 79.7616 40.5548 79.4835 40.6685C79.2055 40.7822 78.932 40.839 78.6647 40.839C78.3897 40.839 78.1877 40.7845 78.0579 40.6754C77.9281 40.5664 77.8628 40.4481 77.8628 40.319C77.8628 40.2891 77.8666 40.256 77.8743 40.2192C77.8812 40.1823 77.8889 40.1439 77.8966 40.1039C77.577 40.3912 77.2859 40.6063 77.0224 40.7499C76.7582 40.8928 76.4886 40.9643 76.2143 40.9643Z" fill="#3C4242"/>
<path d="M81.7054 40.9942C81.3566 40.9942 81.0801 40.9435 80.8758 40.8421C80.6715 40.7407 80.5271 40.6155 80.441 40.4673C80.3558 40.319 80.3127 40.17 80.3127 40.0217C80.3127 39.8735 80.3427 39.759 80.4018 39.6799C80.4618 39.6008 80.534 39.5417 80.6192 39.5017C80.7045 39.4618 80.7859 39.4326 80.8643 39.4126C80.9426 39.3926 80.9956 39.3727 81.0256 39.3535C81.2483 39.1899 81.4527 39.0193 81.6385 38.8411C81.8244 38.6629 81.9873 38.4747 82.1286 38.2765V38.1874C82.1286 38.0046 82.1747 37.874 82.2676 37.7972C82.3606 37.7204 82.4589 37.682 82.5626 37.682C82.6218 37.682 82.6663 37.692 82.6963 37.712C82.7262 37.7319 82.7408 37.7542 82.7408 37.7788C82.7408 37.8034 82.7301 37.8433 82.7078 37.8979C82.6855 37.9524 82.674 38.0215 82.674 38.106C82.674 38.2696 82.7224 38.4463 82.8184 38.6368C82.9152 38.8273 83.0112 39.0278 83.108 39.2382C83.204 39.4487 83.2524 39.6676 83.2524 39.895C83.2524 39.9595 83.247 40.0225 83.2355 40.084C83.2247 40.1462 83.2078 40.2038 83.1856 40.2583C83.4452 40.2284 83.6902 40.1508 83.9207 40.0248C84.1511 39.8988 84.3739 39.6968 84.5889 39.4195L84.6888 39.494C84.5475 39.766 84.3362 39.9726 84.0543 40.1139C83.7724 40.2553 83.4636 40.3428 83.1295 40.3774C83.0104 40.5902 82.823 40.7461 82.5672 40.8452C82.3122 40.945 82.0241 40.9942 81.7054 40.9942ZM81.7276 40.7346C81.8168 40.7346 81.9358 40.7146 82.0841 40.6754C82.2323 40.6355 82.3475 40.5341 82.4297 40.3712C82.1179 40.3321 81.8413 40.2499 81.6001 40.1262C81.3589 40.0025 81.1784 39.8789 81.0601 39.7552C80.8965 39.7606 80.8151 39.8466 80.8151 40.0148C80.8151 40.193 80.895 40.3574 81.0548 40.5087C81.213 40.6585 81.4381 40.7346 81.7276 40.7346ZM82.485 40.2514C82.4996 40.2023 82.5111 40.15 82.5181 40.0955C82.5257 40.041 82.5296 39.9764 82.5296 39.9027C82.5296 39.6699 82.4866 39.4387 82.4013 39.2083C82.316 38.9778 82.2438 38.7612 82.1839 38.5585C82.0134 38.7466 81.8329 38.9264 81.6439 39.0969C81.455 39.2674 81.2744 39.4103 81.1039 39.524C81.2153 39.6822 81.3881 39.8312 81.6216 39.9695C81.8559 40.1085 82.1432 40.2023 82.485 40.2514Z" fill="#3C4242"/>
<path d="M85.5472 40.9942C85.1984 40.9942 84.9219 40.9435 84.7176 40.8421C84.5133 40.7407 84.3688 40.6155 84.2828 40.4673C84.1976 40.319 84.1545 40.17 84.1545 40.0217C84.1545 39.8735 84.1845 39.759 84.2436 39.6799C84.3036 39.6008 84.3758 39.5417 84.461 39.5017C84.5463 39.4618 84.6277 39.4326 84.7061 39.4126C84.7844 39.3926 84.8374 39.3727 84.8674 39.3535C85.0901 39.1899 85.2944 39.0193 85.4803 38.8411C85.6662 38.6629 85.8291 38.4747 85.9704 38.2765V38.1874C85.9704 38.0046 86.0165 37.874 86.1094 37.7972C86.2024 37.7204 86.3007 37.682 86.4044 37.682C86.4635 37.682 86.5081 37.692 86.5381 37.712C86.568 37.7319 86.5826 37.7542 86.5826 37.7788C86.5826 37.8034 86.5719 37.8433 86.5496 37.8979C86.5273 37.9524 86.5158 38.0215 86.5158 38.106C86.5158 38.2696 86.5642 38.4463 86.6602 38.6368C86.757 38.8273 86.853 39.0278 86.9498 39.2382C87.0458 39.4487 87.0942 39.6676 87.0942 39.895C87.0942 39.9595 87.0888 40.0225 87.0773 40.084C87.0665 40.1462 87.0496 40.2038 87.0274 40.2583C87.287 40.2284 87.532 40.1508 87.7625 40.0248C87.9929 39.8988 88.2157 39.6968 88.4307 39.4195L88.5306 39.494C88.3893 39.766 88.178 39.9726 87.8961 40.1139C87.6142 40.2553 87.3054 40.3428 86.9713 40.3774C86.8522 40.5902 86.6648 40.7461 86.409 40.8452C86.1548 40.945 85.8667 40.9942 85.5472 40.9942ZM85.5694 40.7346C85.6585 40.7346 85.7776 40.7146 85.9259 40.6754C86.0741 40.6355 86.1893 40.5341 86.2715 40.3712C85.9597 40.3321 85.6831 40.2499 85.4419 40.1262C85.2007 40.0025 85.0202 39.8789 84.9019 39.7552C84.7383 39.7606 84.6569 39.8466 84.6569 40.0148C84.6569 40.193 84.7368 40.3574 84.8966 40.5087C85.0556 40.6585 85.2799 40.7346 85.5694 40.7346ZM86.3268 40.2514C86.3414 40.2023 86.3529 40.15 86.3599 40.0955C86.3675 40.041 86.3714 39.9764 86.3714 39.9027C86.3714 39.6699 86.3284 39.4387 86.2431 39.2083C86.1578 38.9778 86.0856 38.7612 86.0257 38.5585C85.8552 38.7466 85.6747 38.9264 85.4857 39.0969C85.2968 39.2674 85.1162 39.4103 84.9457 39.524C85.0571 39.6822 85.2299 39.8312 85.4634 39.9695C85.6977 40.1085 85.9858 40.2023 86.3268 40.2514Z" fill="#3C4242"/>
<path d="M88.6999 42.6949C88.514 42.6949 88.3511 42.6618 88.2098 42.595C88.0685 42.5282 87.9978 42.4306 87.9978 42.3016C87.9978 42.1433 88.0577 42.002 88.176 41.8783C88.2943 41.7547 88.4541 41.641 88.6553 41.5365C88.8558 41.4328 89.0855 41.3337 89.3459 41.2392C89.6055 41.1455 89.8767 41.0511 90.1586 40.9573C90.2623 40.7745 90.3683 40.5702 90.4758 40.3451C90.5833 40.1201 90.6855 39.8712 90.7823 39.5993C90.5449 39.8566 90.2907 40.0778 90.0195 40.2637C89.7484 40.4496 89.4603 40.5418 89.1561 40.5418C89.0148 40.5418 88.8758 40.521 88.7383 40.4788C88.6008 40.4365 88.4879 40.3713 88.3988 40.2822C88.3097 40.193 88.2651 40.0794 88.2651 39.9403C88.2651 39.8021 88.3004 39.6408 88.3711 39.4579C88.4418 39.2751 88.5286 39.0969 88.633 38.9233C88.7367 38.7505 88.8443 38.6068 88.9564 38.4924C89.0686 38.3779 89.1646 38.3219 89.246 38.3219C89.276 38.3219 89.3297 38.3295 89.4073 38.3441C89.4857 38.3587 89.5594 38.3802 89.6301 38.4071C89.7008 38.4348 89.7361 38.4632 89.7361 38.4924C89.6693 38.5569 89.5948 38.6483 89.5133 38.7674C89.4311 38.8864 89.352 39.0186 89.2737 39.1645C89.1961 39.3105 89.1308 39.4526 89.0786 39.5916C89.0263 39.7299 89.001 39.8489 89.001 39.948C89.001 40.0371 89.0302 40.1085 89.0901 40.1631C89.1492 40.2176 89.2537 40.2445 89.4019 40.2445C89.5425 40.2445 89.7008 40.1992 89.8751 40.107C90.0495 40.0156 90.2238 39.8981 90.399 39.7544C90.5733 39.6108 90.7347 39.4572 90.8837 39.2943C90.906 39.2398 90.9259 39.1845 90.9451 39.1276C90.9636 39.0708 90.9805 39.0124 90.9951 38.9533C91.0173 38.8841 91.0711 38.8035 91.1564 38.7121C91.2416 38.6207 91.3776 38.5746 91.5627 38.5746C91.5996 38.5746 91.6365 38.5761 91.6741 38.5784C91.711 38.5807 91.7517 38.5869 91.7962 38.5969C91.7962 38.676 91.7609 38.8235 91.6902 39.0385C91.6196 39.2536 91.5189 39.5056 91.3891 39.7921C91.2593 40.0794 91.1049 40.3736 90.9267 40.6754C91.2754 40.5863 91.6173 40.4388 91.9514 40.2338C92.2855 40.0287 92.5567 39.7544 92.7641 39.4134L92.9085 39.4879C92.7971 39.7253 92.6281 39.9319 92.4015 40.1078C92.1749 40.2837 91.9207 40.4342 91.6388 40.561C91.3568 40.687 91.078 40.7922 90.803 40.8767C90.6102 41.1932 90.4005 41.4904 90.1739 41.7677C89.9473 42.045 89.71 42.2693 89.4611 42.4398C89.2138 42.6096 88.9595 42.6949 88.6999 42.6949ZM88.6438 42.4567C88.7552 42.4567 88.9426 42.3592 89.2061 42.1633C89.4695 41.9674 89.7499 41.6248 90.0472 41.1348C89.743 41.2439 89.4603 41.3514 89.2007 41.4582C88.9411 41.5642 88.7329 41.6794 88.577 41.8038C88.421 41.9275 88.3435 42.0711 88.3435 42.2347C88.3435 42.2747 88.3657 42.3215 88.4103 42.3761C88.4548 42.4299 88.5324 42.4567 88.6438 42.4567Z" fill="#3C4242"/>
<path d="M92.9985 40.69C92.9017 40.69 92.8188 40.6739 92.7481 40.6416C92.6774 40.6094 92.6421 40.5587 92.6421 40.4895C92.6421 40.435 92.6751 40.3843 92.7419 40.3375C92.8088 40.2906 92.8925 40.253 92.9924 40.2261C93.0922 40.1992 93.1905 40.1854 93.2873 40.1854C93.3764 40.1854 93.4471 40.1977 93.4986 40.2222C93.55 40.2468 93.5761 40.2944 93.5761 40.3636C93.5761 40.4135 93.5485 40.4627 93.4924 40.5118C93.4363 40.561 93.3641 40.6032 93.275 40.6378C93.1859 40.6724 93.0953 40.69 92.9985 40.69Z" fill="#3C4242"/>
<defs>
<filter id="filter0_d_307_1427" x="0.432617" y="6.58334" width="99.9285" height="42.679" filterUnits="userSpaceOnUse" color-interpolation-filters="sRGB">
<feFlood flood-opacity="0" result="BackgroundImageFix"/>
<feColorMatrix in="SourceAlpha" type="matrix" values="0 0 0 0 0 0 0 0 0 0 0 0 0 0 0 0 0 0 127 0" result="hardAlpha"/>
<feOffset dy="4"/>
<feGaussianBlur stdDeviation="2"/>
<feComposite in2="hardAlpha" operator="out"/>
<feColorMatrix type="matrix" values="0 0 0 0 0 0 0 0 0 0 0 0 0 0 0 0 0 0 0.25 0"/>
<feBlend mode="normal" in2="BackgroundImageFix" result="effect1_dropShadow_307_1427"/>
<feBlend mode="normal" in="SourceGraphic" in2="effect1_dropShadow_307_1427" result="shape"/>
</filter>
</defs>
</svg>
